<?xml version="1.0" standalone="no"?>
<!DOCTYPE svg PUBLIC "-//W3C//DTD SVG 20010904//EN"
 "http://www.w3.org/TR/2001/REC-SVG-20010904/DTD/svg10.dtd">
<svg version="1.0" xmlns="http://www.w3.org/2000/svg"
 width="200.000000pt" height="200.000000pt" viewBox="0 0 200.000000 200.000000"
 preserveAspectRatio="xMidYMid meet">

<g transform="translate(0.000000,200.000000) scale(0.100000,-0.100000)"
fill="#000000" stroke="none">
<path d="M559 1971 c-38 -39 -37 -52 4 -43 41 9 74 8 115 -2 41 -10 42 5 3 45
-20 20 -39 29 -61 29 -22 0 -41 -9 -61 -29z"/>
<path d="M568 1911 c-99 -32 -154 -150 -114 -244 47 -110 198 -143 285 -64 32
29 61 94 61 136 0 50 -37 119 -79 147 -41 26 -111 38 -153 25z"/>
<path d="M1201 1680 c-102 -24 -149 -133 -101 -238 35 -77 111 -126 169 -107
54 17 106 83 122 155 17 72 -36 170 -100 185 -14 3 -33 7 -41 9 -8 2 -30 0
-49 -4z"/>
<path d="M570 1511 c0 -5 7 -25 16 -46 l15 -37 -65 36 -66 37 -65 -32 c-77
-38 -130 -92 -145 -150 -38 -142 154 -274 523 -359 127 -29 143 -27 160 22 13
36 -24 57 -163 92 -213 54 -347 111 -396 169 -29 35 -30 48 -3 78 l20 24 -5
-42 c-5 -37 -3 -44 27 -69 17 -15 61 -40 97 -56 68 -31 290 -99 301 -92 4 2
14 32 23 66 16 60 16 67 -3 152 -11 50 -18 93 -15 98 3 4 43 8 88 8 46 0 103
3 128 6 l44 6 -15 50 -16 50 -135 -4 -135 -5 -70 -41 c-38 -22 -71 -39 -73
-37 -2 2 4 17 12 34 24 46 21 51 -34 51 -27 0 -50 -4 -50 -9z m220 -226 c0
-12 -13 -15 -55 -15 -42 0 -55 3 -55 15 0 12 13 15 55 15 42 0 55 -3 55 -15z"/>
<path d="M1395 1443 c-21 -55 -72 -107 -119 -123 -48 -16 -103 1 -146 45 -88
91 -203 -2 -268 -217 l-20 -68 42 -11 c22 -6 44 -13 48 -15 3 -2 16 29 28 68
24 80 51 138 72 155 11 10 12 -10 5 -115 -4 -70 -6 -154 -5 -186 l3 -60 55
-19 c73 -26 205 -28 280 -4 30 9 60 20 65 24 7 5 8 70 4 188 -4 99 -6 181 -4
183 2 2 14 -16 28 -40 33 -57 71 -181 97 -318 l22 -112 -22 -23 c-12 -13 -23
-38 -23 -57 -2 -27 2 -34 19 -36 16 -2 24 4 31 25 9 25 15 28 54 28 l44 0 5
-370 c5 -352 6 -370 24 -373 10 -2 22 2 27 10 5 7 9 170 9 361 0 369 -3 397
-48 429 -14 9 -24 33 -32 78 -33 196 -74 329 -125 414 -33 55 -33 57 -17 85
24 43 0 75 -67 88 l-49 10 -17 -44z"/>
<path d="M305 850 c-26 -132 -46 -243 -43 -246 3 -3 37 -16 75 -29 93 -31 245
-49 346 -41 129 11 297 55 297 78 0 6 -12 69 -27 141 l-27 131 -12 -57 c-13
-67 -36 -97 -75 -97 -37 0 -73 44 -65 81 3 14 8 48 11 76 l7 49 -103 29 c-115
31 -236 76 -287 106 -18 10 -36 19 -41 19 -4 0 -29 -108 -56 -240z"/>
<path d="M800 861 c-14 -84 -4 -111 39 -111 16 0 33 6 39 13 9 12 36 147 30
152 -2 1 -24 5 -50 9 l-46 7 -12 -70z"/>
<path d="M1021 868 c-13 -34 -71 -670 -71 -779 0 -75 77 -116 128 -69 12 11
24 31 26 43 3 12 15 152 26 312 12 160 24 293 27 298 2 4 39 7 82 7 l78 0 6
-47 c4 -27 13 -140 22 -253 25 -338 24 -330 50 -356 13 -13 35 -24 47 -24 30
0 67 26 78 55 12 32 -47 770 -66 819 -4 11 -13 15 -23 11 -116 -45 -273 -45
-383 0 -13 5 -20 1 -27 -17z"/>
<path d="M440 301 c0 -225 4 -251 39 -278 21 -16 71 -16 92 0 35 27 39 53 39
271 l0 216 -47 0 c-27 0 -65 3 -85 6 l-38 7 0 -222z"/>
<path d="M695 511 l-60 -6 0 -223 0 -224 28 -24 c37 -31 81 -31 112 1 l25 24
0 231 0 230 -22 -2 c-13 -1 -50 -4 -83 -7z"/>
</g>
</svg>
