<svg id="svg" version="1.1" xmlns="http://www.w3.org/2000/svg" xmlns:xlink="http://www.w3.org/1999/xlink" width="400" height="400" viewBox="0, 0, 400,400"><g id="svgg"><path id="path0" d="M181.600 99.855 C 171.832 100.675,161.461 107.867,157.743 116.400 C 155.371 121.843,154.700 124.976,154.872 129.800 L 155.000 133.400 162.900 133.508 L 170.800 133.617 170.802 130.908 C 170.806 126.085,172.177 122.667,175.263 119.779 C 179.221 116.078,178.382 116.200,199.800 116.200 L 218.600 116.200 220.800 117.250 C 225.650 119.565,228.251 123.672,228.719 129.754 L 229.000 133.400 236.200 133.514 C 245.296 133.658,245.200 133.680,245.200 131.409 C 245.200 116.636,236.384 104.490,222.800 100.547 C 220.695 99.936,187.315 99.375,181.600 99.855 M119.400 139.211 C 118.300 139.381,116.770 139.705,116.000 139.932 C 115.230 140.160,114.150 140.479,113.600 140.641 C 112.689 140.911,112.089 141.210,109.155 142.862 C 101.642 147.093,96.465 155.535,95.554 165.042 C 94.846 172.438,95.334 274.997,96.089 277.400 C 99.480 288.191,106.461 295.302,116.600 298.292 C 119.627 299.185,276.122 299.642,280.600 298.771 C 292.466 296.463,301.432 287.843,303.792 276.474 C 304.701 272.097,304.708 165.918,303.800 161.601 C 301.736 151.787,294.954 143.980,285.400 140.418 C 284.960 140.254,283.970 139.868,283.200 139.561 C 281.638 138.938,123.379 138.600,119.400 139.211 M205.471 170.414 C 248.165 176.062,263.546 228.986,230.585 256.828 C 219.572 266.131,202.634 270.083,188.800 266.579 C 146.955 255.978,137.739 201.583,173.768 177.856 C 175.651 176.615,177.296 175.600,177.421 175.600 C 177.547 175.600,178.764 175.076,180.125 174.435 C 187.895 170.778,197.139 169.312,205.471 170.414 M192.907 190.325 C 192.542 190.557,192.386 193.286,192.307 200.819 L 192.200 211.000 182.200 211.200 C 176.700 211.310,171.975 211.546,171.700 211.724 C 171.331 211.963,171.200 213.920,171.200 219.217 L 171.200 226.387 181.700 226.493 L 192.200 226.600 192.307 237.100 L 192.413 247.600 199.583 247.600 C 204.880 247.600,206.837 247.469,207.076 247.100 C 207.254 246.825,207.490 242.100,207.600 236.600 L 207.800 226.600 218.000 226.400 L 228.200 226.200 228.200 219.000 L 228.200 211.800 218.000 211.600 L 207.800 211.400 207.600 201.400 C 207.490 195.900,207.246 191.085,207.057 190.700 C 206.689 189.949,194.028 189.613,192.907 190.325 " stroke="none" fill="#fcfbfb" fill-rule="evenodd"></path><path id="path1" d="M184.783 24.948 C 184.664 25.068,183.314 25.203,181.783 25.249 C 180.253 25.294,178.662 25.500,178.249 25.707 C 177.835 25.914,176.485 26.090,175.249 26.099 C 174.012 26.108,172.550 26.265,172.000 26.449 C 170.849 26.833,168.666 27.186,165.800 27.453 C 164.700 27.555,163.440 27.796,163.000 27.989 C 162.070 28.397,160.419 28.778,158.300 29.074 C 157.475 29.190,156.800 29.445,156.800 29.642 C 156.800 29.839,156.080 30.000,155.200 30.000 C 154.320 30.000,153.600 30.180,153.600 30.400 C 153.600 30.620,152.981 30.800,152.224 30.800 C 151.467 30.800,150.736 30.980,150.600 31.200 C 150.464 31.420,149.924 31.600,149.400 31.600 C 148.876 31.600,148.336 31.780,148.200 32.000 C 148.064 32.220,147.524 32.400,147.000 32.400 C 146.476 32.400,145.936 32.580,145.800 32.800 C 145.664 33.020,145.113 33.200,144.576 33.200 C 144.039 33.200,143.600 33.380,143.600 33.600 C 143.600 33.820,143.060 34.000,142.400 34.000 C 141.740 34.000,141.200 34.180,141.200 34.400 C 141.200 34.620,140.660 34.800,140.000 34.800 C 139.340 34.800,138.800 34.980,138.800 35.200 C 138.800 35.420,138.361 35.600,137.824 35.600 C 137.287 35.600,136.736 35.780,136.600 36.000 C 136.464 36.220,135.993 36.400,135.553 36.400 C 135.113 36.400,134.864 36.580,135.000 36.800 C 135.147 37.039,134.663 37.200,133.800 37.200 C 132.937 37.200,132.453 37.361,132.600 37.600 C 132.740 37.827,132.404 38.000,131.824 38.000 C 131.261 38.000,130.800 38.180,130.800 38.400 C 130.800 38.620,130.440 38.800,130.000 38.800 C 129.560 38.800,129.200 38.980,129.200 39.200 C 129.200 39.420,128.739 39.600,128.176 39.600 C 127.596 39.600,127.260 39.773,127.400 40.000 C 127.615 40.348,126.804 40.590,125.900 40.447 C 125.735 40.421,125.600 40.551,125.600 40.736 C 125.600 40.921,124.880 41.310,124.000 41.600 C 123.120 41.890,122.400 42.290,122.400 42.488 C 122.400 42.685,122.209 42.729,121.975 42.584 C 121.741 42.440,121.201 42.637,120.775 43.023 C 120.349 43.408,120.000 43.594,120.000 43.435 C 120.000 43.276,119.477 43.518,118.838 43.973 C 118.199 44.428,117.463 44.800,117.201 44.800 C 116.940 44.800,116.269 45.160,115.709 45.600 C 115.150 46.040,114.436 46.400,114.122 46.400 C 113.809 46.400,113.664 46.580,113.800 46.800 C 113.939 47.025,113.618 47.200,113.066 47.200 C 112.526 47.200,111.972 47.495,111.833 47.857 C 111.695 48.219,111.470 48.404,111.335 48.268 C 111.199 48.132,110.412 48.557,109.586 49.211 C 108.761 49.865,107.785 50.400,107.419 50.400 C 107.053 50.400,106.864 50.580,107.000 50.800 C 107.136 51.020,106.967 51.200,106.624 51.200 C 106.281 51.200,106.000 51.380,106.000 51.600 C 106.000 51.820,105.629 52.000,105.176 52.000 C 104.723 52.000,104.464 52.180,104.600 52.400 C 104.736 52.620,104.567 52.800,104.224 52.800 C 103.881 52.800,103.600 52.980,103.600 53.200 C 103.600 53.420,103.240 53.600,102.800 53.600 C 102.360 53.600,102.000 53.750,102.000 53.932 C 102.000 54.115,101.505 54.519,100.900 54.830 C 100.295 55.140,99.509 55.711,99.153 56.097 C 98.797 56.484,98.310 56.800,98.071 56.800 C 97.832 56.800,97.203 57.205,96.674 57.700 C 96.144 58.195,94.803 59.229,93.693 59.998 C 92.583 60.768,91.776 61.560,91.899 61.760 C 92.023 61.960,91.936 62.008,91.707 61.866 C 91.478 61.725,90.605 62.237,89.767 63.004 C 88.929 63.772,88.126 64.400,87.981 64.400 C 87.837 64.400,86.406 65.660,84.800 67.200 C 83.194 68.740,81.727 70.000,81.538 70.000 C 81.120 70.000,72.000 79.271,72.000 79.697 C 72.000 79.864,71.807 80.000,71.571 80.000 C 71.052 80.000,70.000 81.004,70.000 81.501 C 70.000 81.698,68.764 83.144,67.254 84.716 C 65.743 86.288,64.603 87.670,64.720 87.787 C 64.837 87.904,64.693 88.000,64.400 88.000 C 64.107 88.000,63.980 88.114,64.119 88.253 C 64.258 88.392,63.883 88.977,63.285 89.553 C 62.687 90.129,61.663 91.320,61.011 92.200 C 60.358 93.080,59.504 94.149,59.112 94.575 C 58.720 95.002,58.400 95.688,58.400 96.099 C 58.400 96.511,58.265 96.765,58.100 96.666 C 57.745 96.450,57.052 97.200,56.875 97.990 C 56.806 98.298,56.401 98.852,55.975 99.222 C 55.549 99.591,55.200 100.064,55.200 100.271 C 55.200 100.479,54.875 100.998,54.478 101.425 C 54.080 101.851,53.502 102.772,53.193 103.471 C 52.883 104.170,52.488 104.655,52.315 104.548 C 52.142 104.440,52.000 104.723,52.000 105.176 C 52.000 105.629,51.820 106.000,51.600 106.000 C 51.380 106.000,51.200 106.281,51.200 106.624 C 51.200 106.967,51.020 107.136,50.800 107.000 C 50.580 106.864,50.393 107.078,50.384 107.476 C 50.375 107.874,49.842 108.814,49.200 109.565 C 48.558 110.316,48.127 111.082,48.242 111.268 C 48.357 111.454,48.169 111.714,47.825 111.846 C 47.481 111.978,47.200 112.546,47.200 113.109 C 47.200 113.673,47.090 114.024,46.956 113.890 C 46.822 113.755,46.308 114.400,45.813 115.323 C 45.319 116.245,44.531 117.675,44.064 118.500 C 43.596 119.325,43.328 120.000,43.469 120.000 C 43.609 120.000,43.440 120.315,43.093 120.700 C 42.746 121.085,42.338 121.897,42.187 122.504 C 42.035 123.111,41.751 123.706,41.556 123.827 C 41.360 123.948,41.200 124.397,41.200 124.824 C 41.200 125.251,41.020 125.600,40.800 125.600 C 40.580 125.600,40.400 125.960,40.400 126.400 C 40.400 126.840,40.220 127.200,40.000 127.200 C 39.780 127.200,39.600 127.740,39.600 128.400 C 39.600 129.060,39.420 129.600,39.200 129.600 C 38.980 129.600,38.800 129.870,38.800 130.200 C 38.800 130.530,38.620 130.800,38.400 130.800 C 38.180 130.800,38.000 131.261,38.000 131.824 C 38.000 132.404,37.827 132.740,37.600 132.600 C 37.373 132.460,37.200 132.798,37.200 133.382 C 37.200 133.948,37.020 134.768,36.800 135.205 C 36.580 135.642,36.220 136.358,36.000 136.795 C 35.780 137.232,35.600 137.862,35.600 138.195 C 35.600 138.528,35.420 138.800,35.200 138.800 C 34.980 138.800,34.800 139.340,34.800 140.000 C 34.800 140.660,34.620 141.200,34.400 141.200 C 34.180 141.200,34.000 141.650,34.000 142.200 C 34.000 142.750,33.820 143.200,33.600 143.200 C 33.380 143.200,33.200 143.729,33.200 144.376 C 33.200 145.023,33.020 145.664,32.800 145.800 C 32.580 145.936,32.400 146.476,32.400 147.000 C 32.400 147.524,32.220 148.064,32.000 148.200 C 31.780 148.336,31.600 149.077,31.600 149.847 C 31.600 150.679,31.438 151.147,31.200 151.000 C 30.962 150.853,30.800 151.329,30.800 152.176 C 30.800 152.959,30.620 153.600,30.400 153.600 C 30.180 153.600,30.000 154.219,30.000 154.976 C 30.000 155.733,29.839 156.452,29.642 156.574 C 29.445 156.695,29.182 157.471,29.058 158.297 C 28.528 161.807,28.292 162.820,27.956 163.027 C 27.760 163.148,27.600 164.126,27.600 165.200 C 27.600 166.274,27.449 167.246,27.265 167.360 C 27.082 167.473,26.900 168.375,26.863 169.364 C 26.826 170.352,26.640 171.575,26.451 172.081 C 26.263 172.586,26.102 174.012,26.096 175.249 C 26.089 176.485,25.914 177.835,25.707 178.249 C 24.665 180.331,24.661 219.158,25.703 222.000 C 25.904 222.550,26.060 223.979,26.049 225.176 C 26.038 226.373,26.194 227.552,26.396 227.795 C 26.599 228.039,26.802 228.950,26.849 229.819 C 26.896 230.689,27.090 231.715,27.282 232.101 C 27.473 232.487,27.646 233.615,27.666 234.609 C 27.685 235.603,27.859 236.513,28.051 236.631 C 28.243 236.750,28.400 237.542,28.400 238.390 C 28.400 239.239,28.572 239.993,28.782 240.067 C 28.993 240.140,29.210 240.875,29.264 241.700 C 29.319 242.525,29.507 243.200,29.682 243.200 C 29.857 243.200,30.000 243.905,30.000 244.767 C 30.000 245.628,30.169 246.393,30.375 246.467 C 30.582 246.540,30.815 247.088,30.894 247.685 C 30.972 248.282,31.163 248.897,31.318 249.052 C 31.473 249.207,31.600 249.933,31.600 250.667 C 31.600 251.400,31.780 252.000,32.000 252.000 C 32.220 252.000,32.400 252.540,32.400 253.200 C 32.400 253.860,32.536 254.400,32.703 254.400 C 33.034 254.400,34.000 257.224,34.000 258.194 C 34.000 258.527,34.180 258.800,34.400 258.800 C 34.620 258.800,34.800 259.340,34.800 260.000 C 34.800 260.660,34.980 261.200,35.200 261.200 C 35.420 261.200,35.600 261.545,35.600 261.967 C 35.600 262.388,35.778 262.793,35.997 262.867 C 36.215 262.940,36.434 263.495,36.484 264.100 C 36.534 264.705,36.715 265.200,36.887 265.200 C 37.059 265.200,37.200 265.472,37.200 265.805 C 37.200 266.138,37.380 266.768,37.600 267.205 C 37.820 267.642,38.180 268.358,38.400 268.795 C 38.620 269.232,38.800 269.862,38.800 270.195 C 38.800 270.528,38.980 270.800,39.200 270.800 C 39.420 270.800,39.600 271.160,39.600 271.600 C 39.600 272.040,39.780 272.400,40.000 272.400 C 40.220 272.400,40.400 272.850,40.400 273.400 C 40.400 273.950,40.580 274.400,40.800 274.400 C 41.020 274.400,41.200 274.760,41.200 275.200 C 41.200 275.640,41.380 276.000,41.600 276.000 C 41.820 276.000,42.000 276.233,42.000 276.518 C 42.000 277.238,45.611 284.570,46.046 284.733 C 46.241 284.807,46.400 285.212,46.400 285.633 C 46.400 286.055,46.580 286.400,46.800 286.400 C 47.020 286.400,47.200 286.670,47.200 287.000 C 47.200 287.330,47.346 287.600,47.525 287.600 C 47.704 287.600,48.098 288.230,48.400 289.000 C 48.702 289.770,49.096 290.400,49.275 290.400 C 49.454 290.400,49.600 290.670,49.600 291.000 C 49.600 291.330,49.780 291.600,50.000 291.600 C 50.220 291.600,50.400 291.836,50.400 292.125 C 50.400 292.413,50.760 293.036,51.200 293.508 C 51.640 293.980,52.000 294.604,52.000 294.895 C 52.000 295.186,52.360 295.683,52.800 296.000 C 53.240 296.317,53.600 296.857,53.600 297.200 C 53.600 297.543,53.960 298.083,54.400 298.400 C 54.840 298.717,55.200 299.206,55.200 299.487 C 55.200 299.768,55.833 300.669,56.607 301.490 C 57.381 302.310,58.385 303.705,58.839 304.591 C 59.292 305.476,60.358 306.864,61.206 307.675 C 62.135 308.563,62.560 309.227,62.274 309.344 C 62.014 309.450,62.126 309.551,62.524 309.568 C 62.922 309.586,63.136 309.780,63.000 310.000 C 62.864 310.220,62.922 310.400,63.128 310.400 C 63.335 310.400,64.268 311.412,65.202 312.649 C 66.136 313.886,67.777 315.794,68.850 316.890 C 69.922 317.985,70.800 319.053,70.800 319.264 C 70.800 319.475,70.980 319.536,71.200 319.400 C 71.420 319.264,71.600 319.389,71.600 319.678 C 71.600 320.419,85.653 334.000,86.419 334.000 C 86.629 334.000,86.800 334.180,86.800 334.400 C 86.800 334.620,86.980 334.800,87.200 334.800 C 87.419 334.800,88.341 335.520,89.248 336.400 C 90.155 337.280,91.101 338.000,91.352 338.000 C 91.603 338.000,92.037 338.367,92.317 338.816 C 92.597 339.264,93.028 339.506,93.275 339.354 C 93.527 339.198,93.613 339.255,93.471 339.484 C 93.232 339.871,96.836 342.400,97.627 342.400 C 97.832 342.400,98.001 342.535,98.003 342.700 C 98.004 342.865,98.679 343.448,99.503 343.995 C 100.326 344.542,101.291 345.307,101.647 345.695 C 102.003 346.083,102.505 346.400,102.764 346.400 C 103.022 346.400,103.620 346.760,104.092 347.200 C 104.564 347.640,105.187 348.000,105.475 348.000 C 105.764 348.000,106.000 348.180,106.000 348.400 C 106.000 348.620,106.294 348.800,106.653 348.800 C 107.012 348.800,107.597 349.118,107.953 349.507 C 108.309 349.896,109.455 350.644,110.500 351.170 C 111.545 351.696,112.400 352.277,112.400 352.463 C 112.400 352.648,112.670 352.800,113.000 352.800 C 113.330 352.800,113.600 352.999,113.600 353.243 C 113.600 353.486,113.865 353.584,114.188 353.460 C 114.512 353.336,115.039 353.496,115.360 353.817 C 115.681 354.138,116.136 354.400,116.371 354.400 C 116.607 354.400,116.800 354.591,116.800 354.824 C 116.800 355.057,116.965 355.145,117.168 355.020 C 117.370 354.895,117.807 355.064,118.139 355.396 C 118.471 355.728,118.991 356.000,119.294 356.000 C 119.597 356.000,120.455 356.450,121.200 357.000 C 121.945 357.550,122.870 358.000,123.254 358.000 C 123.638 358.000,124.064 358.180,124.200 358.400 C 124.336 358.620,124.797 358.800,125.224 358.800 C 125.651 358.800,126.000 358.980,126.000 359.200 C 126.000 359.420,126.234 359.600,126.520 359.600 C 127.256 359.600,129.193 360.541,129.197 360.900 C 129.199 361.065,129.549 361.200,129.976 361.200 C 130.403 361.200,130.864 361.380,131.000 361.600 C 131.136 361.820,131.687 362.000,132.224 362.000 C 132.761 362.000,133.200 362.180,133.200 362.400 C 133.200 362.620,133.549 362.800,133.976 362.800 C 134.403 362.800,134.864 362.980,135.000 363.200 C 135.136 363.420,135.687 363.600,136.224 363.600 C 136.761 363.600,137.200 363.780,137.200 364.000 C 137.200 364.220,137.549 364.400,137.976 364.400 C 138.403 364.400,138.864 364.580,139.000 364.800 C 139.136 365.020,139.676 365.200,140.200 365.200 C 140.724 365.200,141.264 365.380,141.400 365.600 C 141.536 365.820,141.999 366.000,142.429 366.000 C 142.859 366.000,143.568 366.180,144.005 366.400 C 144.442 366.620,145.158 366.980,145.595 367.200 C 146.032 367.420,147.032 367.600,147.818 367.600 C 148.604 367.600,149.160 367.742,149.052 367.915 C 148.945 368.088,149.340 368.270,149.929 368.319 C 150.518 368.367,151.060 368.585,151.133 368.803 C 151.207 369.022,151.972 369.200,152.833 369.200 C 153.695 369.200,154.400 369.380,154.400 369.600 C 154.400 369.820,155.120 370.000,156.000 370.000 C 156.880 370.000,157.600 370.180,157.600 370.400 C 157.600 370.620,158.219 370.800,158.976 370.800 C 159.733 370.800,160.440 370.941,160.546 371.113 C 160.652 371.285,161.326 371.470,162.043 371.525 C 162.760 371.579,163.539 371.781,163.773 371.972 C 164.008 372.164,165.190 372.426,166.400 372.555 C 167.610 372.683,169.635 372.898,170.900 373.031 C 172.165 373.165,173.200 373.409,173.200 373.575 C 173.200 373.740,174.235 373.897,175.500 373.923 C 176.765 373.950,178.250 374.085,178.800 374.225 C 183.528 375.424,221.400 375.227,221.400 374.004 C 221.400 373.972,222.570 373.929,224.000 373.908 C 225.430 373.888,226.690 373.737,226.800 373.574 C 226.984 373.301,228.034 373.133,233.300 372.538 C 234.345 372.419,235.200 372.195,235.200 372.040 C 235.200 371.884,235.949 371.712,236.864 371.658 C 237.779 371.604,238.847 371.389,239.237 371.180 C 239.628 370.971,240.499 370.800,241.174 370.800 C 241.848 370.800,242.400 370.620,242.400 370.400 C 242.400 370.180,243.131 370.000,244.024 370.000 C 245.004 370.000,245.549 369.842,245.400 369.600 C 245.251 369.358,245.796 369.200,246.776 369.200 C 247.669 369.200,248.400 369.020,248.400 368.800 C 248.400 368.580,249.030 368.400,249.800 368.400 C 250.570 368.400,251.200 368.220,251.200 368.000 C 251.200 367.780,251.740 367.600,252.400 367.600 C 253.060 367.600,253.600 367.420,253.600 367.200 C 253.600 366.980,254.039 366.800,254.576 366.800 C 255.113 366.800,255.664 366.620,255.800 366.400 C 255.936 366.180,256.487 366.000,257.024 366.000 C 257.561 366.000,258.000 365.820,258.000 365.600 C 258.000 365.380,258.525 365.200,259.167 365.200 C 259.808 365.200,260.393 365.022,260.467 364.803 C 260.540 364.585,261.095 364.366,261.700 364.316 C 262.305 364.266,262.800 364.085,262.800 363.913 C 262.800 363.741,263.160 363.600,263.600 363.600 C 264.040 363.600,264.400 363.420,264.400 363.200 C 264.400 362.980,264.940 362.800,265.600 362.800 C 266.260 362.800,266.800 362.620,266.800 362.400 C 266.800 362.180,267.072 362.000,267.405 362.000 C 267.993 362.000,268.418 361.833,270.295 360.862 C 270.787 360.608,271.472 360.400,271.818 360.400 C 272.164 360.400,272.336 360.220,272.200 360.000 C 272.059 359.772,272.404 359.600,273.000 359.600 C 273.596 359.600,273.941 359.428,273.800 359.200 C 273.664 358.980,273.836 358.800,274.182 358.800 C 274.874 358.800,276.453 358.002,276.855 357.449 C 276.996 357.256,277.331 357.234,277.600 357.400 C 277.869 357.566,278.204 357.536,278.345 357.333 C 278.704 356.814,283.550 354.400,284.234 354.400 C 284.546 354.400,284.800 354.224,284.800 354.009 C 284.800 353.794,285.475 353.281,286.300 352.869 C 289.769 351.135,291.437 350.161,292.025 349.525 C 292.369 349.154,292.909 348.794,293.225 348.725 C 293.541 348.656,294.072 348.330,294.404 348.000 C 294.737 347.670,295.457 347.147,296.004 346.838 C 296.552 346.528,297.350 346.078,297.778 345.838 C 298.206 345.597,298.982 344.992,299.504 344.492 C 300.025 343.993,300.587 343.669,300.753 343.771 C 300.919 343.873,301.307 343.607,301.615 343.179 C 301.924 342.750,302.362 342.400,302.588 342.400 C 302.970 342.399,304.428 341.332,306.100 339.829 C 306.485 339.483,306.961 339.200,307.157 339.200 C 307.354 339.200,307.619 338.928,307.746 338.597 C 307.873 338.265,308.478 337.772,309.089 337.501 C 309.700 337.230,310.861 336.332,311.669 335.504 C 312.476 334.677,313.305 334.000,313.510 334.000 C 313.714 334.000,315.708 332.200,317.941 330.000 C 320.174 327.800,322.210 326.000,322.467 326.000 C 322.723 326.000,322.822 325.889,322.686 325.752 C 322.382 325.449,323.379 324.400,323.971 324.400 C 324.207 324.400,324.400 324.207,324.400 323.972 C 324.400 323.737,325.987 321.972,327.927 320.051 C 329.867 318.129,331.571 316.252,331.715 315.879 C 331.858 315.505,332.220 315.200,332.520 315.200 C 332.820 315.200,333.320 314.705,333.632 314.100 C 333.945 313.495,334.875 312.339,335.700 311.531 C 336.525 310.724,337.200 309.895,337.200 309.690 C 337.200 309.485,337.650 308.831,338.200 308.238 C 338.750 307.644,339.200 307.078,339.200 306.979 C 339.200 306.881,339.483 306.485,339.829 306.100 C 341.332 304.428,342.399 302.970,342.400 302.588 C 342.400 302.362,342.750 301.924,343.179 301.615 C 343.607 301.307,343.873 300.919,343.771 300.753 C 343.669 300.587,343.993 300.025,344.492 299.504 C 345.329 298.630,345.781 297.953,346.962 295.804 C 347.203 295.367,347.715 294.716,348.100 294.357 C 348.485 293.999,348.800 293.412,348.800 293.053 C 348.800 292.694,348.980 292.400,349.200 292.400 C 349.420 292.400,349.600 292.119,349.600 291.776 C 349.600 291.433,349.747 291.244,349.927 291.355 C 350.107 291.466,350.479 290.937,350.753 290.179 C 351.027 289.420,351.420 288.800,351.626 288.800 C 351.832 288.800,352.000 288.440,352.000 288.000 C 352.000 287.560,352.180 287.200,352.400 287.200 C 352.620 287.200,352.800 286.964,352.800 286.675 C 352.800 286.387,353.160 285.764,353.600 285.292 C 354.040 284.820,354.400 284.303,354.400 284.145 C 354.400 283.477,356.173 280.000,356.514 280.000 C 356.718 280.000,356.784 279.735,356.659 279.411 C 356.534 279.084,356.737 278.651,357.113 278.441 C 357.487 278.231,357.673 277.939,357.525 277.792 C 357.377 277.644,357.604 276.905,358.028 276.150 C 358.453 275.394,358.800 274.501,358.800 274.164 C 358.800 273.828,358.980 273.664,359.200 273.800 C 359.420 273.936,359.600 273.677,359.600 273.224 C 359.600 272.771,359.780 272.400,360.000 272.400 C 360.220 272.400,360.400 272.128,360.400 271.795 C 360.400 271.462,360.608 270.787,360.862 270.295 C 361.833 268.418,362.000 267.993,362.000 267.405 C 362.000 267.072,362.180 266.800,362.400 266.800 C 362.620 266.800,362.800 266.260,362.800 265.600 C 362.800 264.940,362.980 264.400,363.200 264.400 C 363.420 264.400,363.600 264.040,363.600 263.600 C 363.600 263.160,363.780 262.800,364.000 262.800 C 364.220 262.800,364.400 262.260,364.400 261.600 C 364.400 260.940,364.580 260.400,364.800 260.400 C 365.020 260.400,365.200 259.860,365.200 259.200 C 365.200 258.540,365.380 258.000,365.600 258.000 C 365.820 258.000,366.000 257.550,366.000 257.000 C 366.000 256.450,366.180 256.000,366.400 256.000 C 366.620 256.000,366.800 255.460,366.800 254.800 C 366.800 254.140,366.980 253.600,367.200 253.600 C 367.420 253.600,367.600 252.959,367.600 252.176 C 367.600 251.393,367.743 250.841,367.917 250.949 C 368.091 251.056,368.277 250.572,368.330 249.872 C 368.382 249.173,368.600 248.540,368.813 248.467 C 369.026 248.393,369.200 247.718,369.200 246.967 C 369.200 246.215,369.380 245.600,369.600 245.600 C 369.820 245.600,370.000 244.880,370.000 244.000 C 370.000 243.120,370.180 242.400,370.400 242.400 C 370.620 242.400,370.800 241.781,370.800 241.024 C 370.800 240.267,370.951 239.554,371.135 239.440 C 371.319 239.327,371.494 238.564,371.525 237.746 C 371.556 236.928,371.765 236.075,371.990 235.850 C 372.216 235.624,372.400 234.486,372.400 233.320 C 372.400 232.154,372.546 231.200,372.724 231.200 C 372.901 231.200,373.070 230.273,373.097 229.140 C 373.125 228.007,373.310 226.972,373.509 226.840 C 373.708 226.708,373.888 225.430,373.908 224.000 C 373.929 222.570,373.972 221.400,374.004 221.400 C 375.218 221.400,375.424 180.381,374.220 178.432 C 374.073 178.195,373.934 176.966,373.909 175.701 C 373.885 174.435,373.719 173.302,373.540 173.181 C 373.362 173.061,373.170 171.936,373.115 170.681 C 373.059 169.427,372.875 168.400,372.707 168.400 C 372.538 168.400,372.400 167.421,372.400 166.224 C 372.400 165.027,372.220 163.936,372.000 163.800 C 371.780 163.664,371.600 162.933,371.600 162.176 C 371.600 161.419,371.438 160.800,371.240 160.800 C 371.042 160.800,370.781 160.035,370.659 159.100 C 370.234 155.840,369.909 154.391,369.556 154.173 C 369.360 154.052,369.200 153.333,369.200 152.576 C 369.200 151.819,369.020 151.200,368.800 151.200 C 368.580 151.200,368.400 150.671,368.400 150.024 C 368.400 149.377,368.220 148.736,368.000 148.600 C 367.780 148.464,367.600 147.834,367.600 147.200 C 367.600 146.566,367.420 145.936,367.200 145.800 C 366.980 145.664,366.800 145.113,366.800 144.576 C 366.800 144.039,366.620 143.600,366.400 143.600 C 366.180 143.600,366.000 143.240,366.000 142.800 C 366.000 142.360,365.775 141.997,365.500 141.994 C 365.167 141.990,365.200 141.858,365.600 141.600 C 366.000 141.342,366.033 141.210,365.700 141.206 C 365.425 141.203,365.200 140.857,365.200 140.438 C 365.200 140.019,364.814 138.894,364.343 137.938 C 363.872 136.982,363.311 135.750,363.097 135.200 C 362.882 134.650,362.548 133.887,362.353 133.505 C 362.159 133.123,362.000 132.557,362.000 132.246 C 362.000 131.935,361.460 130.655,360.800 129.400 C 360.140 128.145,359.600 126.867,359.600 126.559 C 359.600 126.252,359.420 126.000,359.200 126.000 C 358.980 126.000,358.800 125.651,358.800 125.224 C 358.800 124.797,358.620 124.336,358.400 124.200 C 358.180 124.064,358.000 123.603,358.000 123.176 C 358.000 122.749,357.685 122.085,357.300 121.700 C 356.915 121.315,356.580 120.820,356.557 120.600 C 356.454 119.661,355.880 118.400,355.553 118.400 C 355.359 118.400,355.200 118.117,355.200 117.771 C 355.200 117.426,354.928 116.871,354.596 116.539 C 354.264 116.207,354.095 115.770,354.220 115.568 C 354.345 115.365,354.271 115.200,354.056 115.200 C 353.841 115.200,353.258 114.300,352.761 113.200 C 352.264 112.100,351.753 111.200,351.626 111.200 C 351.499 111.200,351.136 110.615,350.820 109.900 C 350.503 109.185,349.920 108.251,349.522 107.825 C 349.125 107.398,348.800 106.813,348.800 106.525 C 348.800 106.236,348.620 106.000,348.400 106.000 C 348.180 106.000,348.000 105.764,348.000 105.475 C 348.000 105.187,347.640 104.564,347.200 104.092 C 346.760 103.620,346.400 102.996,346.400 102.705 C 346.400 102.414,346.040 101.917,345.600 101.600 C 345.160 101.283,344.800 100.820,344.800 100.571 C 344.800 100.322,344.260 99.554,343.600 98.863 C 342.940 98.172,342.400 97.519,342.400 97.411 C 342.400 96.895,339.568 92.873,338.851 92.371 C 338.403 92.057,337.983 91.541,337.918 91.225 C 337.853 90.908,337.080 89.900,336.200 88.984 C 335.320 88.069,334.330 86.913,334.000 86.416 C 332.174 83.666,313.766 65.200,312.850 65.200 C 312.673 65.200,311.680 64.399,310.643 63.421 C 309.607 62.442,308.409 61.530,307.980 61.394 C 307.551 61.257,307.200 60.980,307.200 60.778 C 307.200 60.576,306.435 59.931,305.500 59.345 C 304.565 58.760,303.740 58.127,303.667 57.940 C 303.593 57.753,303.178 57.600,302.743 57.600 C 302.308 57.600,302.064 57.420,302.200 57.200 C 302.336 56.980,302.233 56.800,301.971 56.800 C 301.708 56.800,301.158 56.412,300.747 55.939 C 300.336 55.465,300.000 55.304,300.000 55.581 C 300.000 55.858,299.478 55.526,298.840 54.842 C 298.201 54.159,297.391 53.600,297.040 53.600 C 296.688 53.600,296.400 53.450,296.400 53.268 C 296.400 53.085,295.905 52.680,295.300 52.368 C 294.695 52.055,293.851 51.485,293.425 51.100 C 292.998 50.715,292.413 50.400,292.125 50.400 C 291.836 50.400,291.600 50.220,291.600 50.000 C 291.600 49.780,291.330 49.600,291.000 49.600 C 290.670 49.600,290.400 49.420,290.400 49.200 C 290.400 48.980,290.130 48.800,289.800 48.800 C 289.470 48.800,289.200 48.609,289.200 48.376 C 289.200 48.143,289.040 48.051,288.845 48.172 C 288.650 48.293,288.270 48.125,288.000 47.800 C 287.730 47.475,287.370 47.295,287.200 47.400 C 287.030 47.505,286.668 47.323,286.396 46.996 C 286.124 46.668,285.746 46.400,285.556 46.400 C 285.365 46.400,284.841 46.085,284.392 45.700 C 283.942 45.315,283.445 44.991,283.287 44.980 C 282.640 44.936,280.986 44.271,280.796 43.978 C 280.684 43.805,280.328 43.605,280.006 43.532 C 279.683 43.459,279.175 43.173,278.877 42.896 C 278.579 42.619,278.170 42.495,277.968 42.620 C 277.765 42.745,277.600 42.657,277.600 42.424 C 277.600 42.191,277.240 42.000,276.800 42.000 C 276.360 42.000,276.000 41.820,276.000 41.600 C 276.000 41.380,275.640 41.200,275.200 41.200 C 274.760 41.200,274.400 41.020,274.400 40.800 C 274.400 40.580,274.265 40.421,274.100 40.447 C 273.109 40.604,271.990 40.340,272.200 40.000 C 272.336 39.780,272.077 39.600,271.624 39.600 C 271.171 39.600,270.800 39.420,270.800 39.200 C 270.800 38.980,270.445 38.800,270.012 38.800 C 269.579 38.800,268.583 38.440,267.800 38.000 C 267.017 37.560,266.011 37.200,265.564 37.200 C 265.118 37.200,264.864 37.020,265.000 36.800 C 265.140 36.574,264.812 36.400,264.247 36.400 C 263.697 36.400,263.136 36.220,263.000 36.000 C 262.864 35.780,262.403 35.600,261.976 35.600 C 261.549 35.600,261.200 35.420,261.200 35.200 C 261.200 34.980,260.671 34.800,260.024 34.800 C 259.377 34.800,258.736 34.620,258.600 34.400 C 258.464 34.180,257.913 34.000,257.376 34.000 C 256.839 34.000,256.400 33.820,256.400 33.600 C 256.400 33.380,255.950 33.200,255.400 33.200 C 254.850 33.200,254.400 33.020,254.400 32.800 C 254.400 32.580,253.759 32.400,252.976 32.400 C 252.129 32.400,251.653 32.238,251.800 32.000 C 251.949 31.759,251.412 31.600,250.447 31.600 C 249.567 31.600,248.736 31.420,248.600 31.200 C 248.464 30.980,247.913 30.800,247.376 30.800 C 246.839 30.800,246.400 30.620,246.400 30.400 C 246.400 30.180,245.680 30.000,244.800 30.000 C 243.920 30.000,243.200 29.820,243.200 29.600 C 243.200 29.380,242.480 29.200,241.600 29.200 C 240.720 29.200,240.000 29.020,240.000 28.800 C 240.000 28.580,239.291 28.400,238.424 28.400 C 237.557 28.400,236.750 28.243,236.631 28.051 C 236.513 27.859,235.571 27.685,234.540 27.664 C 233.508 27.643,232.559 27.472,232.432 27.284 C 232.304 27.096,231.306 26.900,230.213 26.848 C 229.121 26.796,228.033 26.594,227.797 26.398 C 227.561 26.201,226.265 26.046,224.918 26.053 C 223.570 26.059,222.135 25.886,221.728 25.669 C 221.322 25.451,220.541 25.252,219.994 25.227 C 215.562 25.020,184.952 24.778,184.783 24.948 M219.323 99.225 C 224.131 99.935,226.453 100.769,231.264 103.511 C 233.898 105.013,240.000 110.851,240.000 111.870 C 240.000 112.162,240.154 112.400,240.342 112.400 C 240.789 112.400,244.008 118.797,244.003 119.676 C 244.001 120.048,244.161 120.452,244.358 120.574 C 244.936 120.931,245.278 123.866,245.341 129.000 L 245.400 133.800 236.800 133.800 L 228.200 133.800 227.980 130.200 C 227.860 128.220,227.615 126.240,227.438 125.800 C 225.776 121.686,224.192 119.834,220.923 118.177 L 218.600 117.000 200.800 116.880 C 179.675 116.738,179.311 116.790,175.530 120.490 C 172.886 123.078,172.049 125.112,171.699 129.800 L 171.400 133.800 162.800 133.800 L 154.200 133.800 154.248 128.863 C 154.292 124.333,154.699 121.714,155.639 119.905 C 155.838 119.523,156.000 118.955,156.000 118.643 C 156.000 118.121,157.536 114.863,158.001 114.400 C 158.111 114.290,158.442 113.732,158.736 113.161 C 161.952 106.907,170.901 100.993,179.600 99.374 C 182.990 98.743,215.241 98.622,219.323 99.225 M280.954 138.432 C 281.859 138.669,283.320 139.048,284.200 139.273 C 285.728 139.665,291.981 142.623,292.400 143.152 C 292.510 143.291,293.302 143.928,294.159 144.568 C 298.819 148.044,302.208 153.387,304.454 160.800 C 305.265 163.476,305.264 274.530,304.453 277.200 C 302.541 283.494,300.436 287.213,296.626 291.032 C 292.166 295.501,289.294 297.161,282.400 299.254 C 279.664 300.084,120.921 300.065,117.400 299.233 C 105.844 296.505,97.468 287.540,94.947 275.200 C 94.444 272.738,94.301 166.478,94.798 164.000 C 95.821 158.890,96.162 157.673,97.245 155.261 C 99.678 149.843,106.968 142.000,109.572 142.000 C 109.807 142.000,110.000 141.820,110.000 141.600 C 110.000 141.380,110.360 141.200,110.800 141.200 C 111.240 141.200,111.600 141.020,111.600 140.800 C 111.600 140.580,111.949 140.400,112.376 140.400 C 112.803 140.400,113.264 140.220,113.400 140.000 C 113.536 139.780,114.076 139.600,114.600 139.600 C 115.124 139.600,115.664 139.420,115.800 139.200 C 115.936 138.980,116.622 138.797,117.324 138.794 C 118.026 138.791,118.870 138.613,119.200 138.400 C 120.081 137.831,278.781 137.862,280.954 138.432 M194.400 171.206 C 192.750 171.383,190.500 171.732,189.400 171.982 C 188.300 172.231,186.903 172.539,186.295 172.664 C 185.687 172.790,185.092 173.051,184.971 173.246 C 184.851 173.441,184.313 173.600,183.776 173.600 C 183.239 173.600,182.800 173.780,182.800 174.000 C 182.800 174.220,182.451 174.400,182.024 174.400 C 181.597 174.400,181.136 174.580,181.000 174.800 C 180.864 175.020,180.403 175.200,179.976 175.200 C 179.549 175.200,179.200 175.380,179.200 175.600 C 179.200 175.820,178.917 176.000,178.572 176.000 C 178.227 176.000,177.159 176.540,176.200 177.200 C 175.241 177.860,174.355 178.400,174.232 178.400 C 172.951 178.400,163.839 186.935,161.570 190.260 C 160.842 191.327,160.101 192.260,159.923 192.333 C 159.745 192.407,159.600 192.644,159.600 192.861 C 159.600 193.078,159.060 194.041,158.400 195.000 C 157.740 195.959,157.200 196.920,157.200 197.134 C 157.200 197.349,156.814 198.306,156.343 199.262 C 151.207 209.679,150.707 225.449,155.173 236.200 C 156.198 238.670,158.998 244.220,159.275 244.333 C 159.454 244.407,159.600 244.722,159.600 245.033 C 159.600 245.345,159.780 245.600,160.000 245.600 C 160.220 245.600,160.400 245.870,160.400 246.200 C 160.400 246.530,160.541 246.800,160.714 246.800 C 160.886 246.800,161.326 247.306,161.691 247.924 C 162.589 249.443,168.659 255.642,170.400 256.817 C 171.170 257.337,172.070 258.041,172.401 258.381 C 173.120 259.121,175.124 260.362,176.100 260.671 C 176.485 260.793,176.800 261.052,176.800 261.247 C 176.800 261.441,177.065 261.600,177.388 261.600 C 177.711 261.600,178.585 261.942,179.329 262.360 C 190.072 268.394,208.427 268.373,220.590 262.313 C 225.561 259.836,225.594 259.818,225.597 259.500 C 225.599 259.335,225.825 259.199,226.100 259.199 C 227.261 259.195,236.413 250.567,238.029 247.953 C 238.557 247.099,239.126 246.400,239.294 246.400 C 239.462 246.400,239.600 246.145,239.600 245.833 C 239.600 245.522,239.735 245.207,239.900 245.133 C 240.276 244.966,241.575 242.836,241.871 241.900 C 241.993 241.515,242.252 241.200,242.447 241.200 C 242.641 241.200,242.800 240.947,242.800 240.638 C 242.800 240.329,243.186 239.294,243.657 238.338 C 244.667 236.288,245.040 235.356,245.394 234.000 C 245.537 233.450,245.834 232.370,246.053 231.600 C 247.621 226.108,248.052 216.810,247.010 211.000 C 246.204 206.509,245.986 205.513,245.610 204.600 C 245.429 204.160,245.063 203.170,244.797 202.400 C 244.119 200.433,241.070 194.227,240.704 194.067 C 240.537 193.993,240.400 193.723,240.400 193.467 C 240.399 193.210,239.934 192.460,239.365 191.800 C 238.796 191.140,238.045 190.117,237.695 189.527 C 235.485 185.795,226.358 178.379,220.600 175.636 C 216.196 173.538,215.586 173.329,209.000 171.657 C 206.768 171.091,198.002 170.820,194.400 171.206 M207.367 189.843 C 207.922 190.056,208.000 191.367,208.000 200.443 L 208.000 210.800 218.120 210.800 C 225.458 210.800,228.372 210.932,228.720 211.280 C 229.639 212.199,229.372 226.280,228.426 226.786 C 227.953 227.039,223.835 227.200,217.826 227.200 L 208.000 227.200 208.000 237.320 C 208.000 244.658,207.868 247.572,207.520 247.920 C 206.931 248.509,193.319 248.589,192.400 248.009 C 191.902 247.694,191.766 245.919,191.600 237.515 L 191.400 227.400 181.200 227.183 C 175.590 227.063,170.951 226.928,170.892 226.883 C 170.832 226.837,170.832 223.245,170.892 218.900 L 171.000 211.000 181.300 210.893 L 191.600 210.786 191.600 201.443 C 191.600 196.304,191.713 191.538,191.850 190.850 L 192.100 189.600 199.417 189.600 C 203.442 189.600,207.019 189.709,207.367 189.843 " stroke="none" fill="#fc847c" fill-rule="evenodd"></path><path id="path2" d="M236.200 108.000 C 237.283 109.100,238.260 110.000,238.370 110.000 C 238.480 110.000,237.683 109.100,236.600 108.000 C 235.517 106.900,234.540 106.000,234.430 106.000 C 234.320 106.000,235.117 106.900,236.200 108.000 M228.131 130.600 C 228.133 132.140,228.205 132.721,228.292 131.891 C 228.379 131.061,228.377 129.801,228.289 129.091 C 228.200 128.381,228.129 129.060,228.131 130.600 M245.331 130.600 C 245.333 132.140,245.405 132.721,245.492 131.891 C 245.579 131.061,245.577 129.801,245.489 129.091 C 245.400 128.381,245.329 129.060,245.331 130.600 M158.700 133.898 C 160.955 133.970,164.645 133.970,166.900 133.898 C 169.155 133.827,167.310 133.769,162.800 133.769 C 158.290 133.769,156.445 133.827,158.700 133.898 M233.121 133.899 C 235.388 133.970,238.988 133.970,241.121 133.898 C 243.255 133.826,241.400 133.768,237.000 133.768 C 232.600 133.768,230.855 133.827,233.121 133.899 M94.893 166.000 C 94.893 166.770,94.975 167.085,95.076 166.700 C 95.176 166.315,95.176 165.685,95.076 165.300 C 94.975 164.915,94.893 165.230,94.893 166.000 M233.583 184.500 C 234.564 185.545,235.419 186.400,235.483 186.400 C 235.784 186.400,235.466 186.041,233.700 184.383 L 231.800 182.600 233.583 184.500 M196.080 189.898 C 197.994 189.971,201.234 189.971,203.280 189.898 C 205.326 189.826,203.760 189.766,199.800 189.765 C 195.840 189.765,194.166 189.824,196.080 189.898 M207.789 200.800 L 207.800 211.000 217.768 211.107 C 224.913 211.184,227.914 211.354,228.368 211.707 C 228.926 212.142,228.936 212.118,228.451 211.500 C 227.954 210.867,226.953 210.800,217.958 210.800 L 208.014 210.800 207.896 200.700 L 207.779 190.600 207.789 200.800 M176.523 211.099 C 179.341 211.168,183.841 211.168,186.523 211.099 C 189.205 211.030,186.900 210.973,181.400 210.973 C 175.900 210.974,173.705 211.030,176.523 211.099 M207.773 237.400 C 207.773 242.900,207.830 245.205,207.899 242.523 C 207.968 239.841,207.968 235.341,207.899 232.523 C 207.830 229.705,207.774 231.900,207.773 237.400 M198.707 267.490 C 199.426 267.579,200.506 267.577,201.107 267.486 C 201.708 267.395,201.120 267.322,199.800 267.324 C 198.480 267.326,197.988 267.401,198.707 267.490 M94.901 271.800 C 94.905 272.680,94.987 272.993,95.083 272.495 C 95.179 271.998,95.175 271.278,95.075 270.895 C 94.975 270.513,94.896 270.920,94.901 271.800 M103.400 291.200 C 104.483 292.300,105.460 293.200,105.570 293.200 C 105.680 293.200,104.883 292.300,103.800 291.200 C 102.717 290.100,101.740 289.200,101.630 289.200 C 101.520 289.200,102.317 290.100,103.400 291.200 M120.900 299.476 C 121.285 299.576,121.915 299.576,122.300 299.476 C 122.685 299.375,122.370 299.293,121.600 299.293 C 120.830 299.293,120.515 299.375,120.900 299.476 M277.300 299.476 C 277.685 299.576,278.315 299.576,278.700 299.476 C 279.085 299.375,278.770 299.293,278.000 299.293 C 277.230 299.293,276.915 299.375,277.300 299.476 " stroke="none" fill="#fcaeac" fill-rule="evenodd"></path><path id="path3" d="M181.200 99.553 C 180.430 99.689,188.890 99.800,200.000 99.800 C 211.110 99.800,219.390 99.678,218.400 99.530 C 216.162 99.193,183.117 99.214,181.200 99.553 M176.800 100.400 C 176.005 100.914,177.004 100.914,178.200 100.400 L 179.000 100.056 178.200 100.034 C 177.760 100.022,177.130 100.187,176.800 100.400 M221.800 100.400 C 222.996 100.914,223.995 100.914,223.200 100.400 C 222.870 100.187,222.240 100.022,221.800 100.034 L 221.000 100.056 221.800 100.400 M226.433 101.752 C 226.841 102.124,230.800 103.993,230.800 103.813 C 230.800 103.588,226.980 101.600,226.547 101.600 C 226.393 101.600,226.342 101.668,226.433 101.752 M168.181 104.221 C 164.011 106.952,160.811 110.327,158.246 114.700 C 157.398 116.146,158.492 114.890,159.811 112.904 C 162.527 108.814,165.064 106.471,169.985 103.507 C 170.983 102.906,171.612 102.411,171.381 102.407 C 171.151 102.403,169.711 103.220,168.181 104.221 M233.600 105.696 C 233.600 105.846,234.523 106.830,235.650 107.884 C 237.874 109.963,240.659 113.712,241.751 116.100 C 242.613 117.983,243.013 118.083,242.235 116.221 C 241.045 113.373,233.600 104.299,233.600 105.696 M191.327 116.300 C 196.127 116.364,203.867 116.363,208.527 116.299 C 213.187 116.236,209.260 116.183,199.800 116.183 C 190.340 116.183,186.527 116.236,191.327 116.300 M219.970 117.275 C 221.386 117.819,222.951 118.896,224.470 120.374 C 227.259 123.085,227.606 122.964,224.900 120.223 C 223.083 118.383,219.670 116.389,218.400 116.425 C 218.070 116.434,218.777 116.817,219.970 117.275 M176.960 118.348 C 173.930 120.579,171.921 123.380,171.453 126.027 L 171.209 127.400 171.641 126.200 C 173.019 122.362,174.665 120.181,177.578 118.330 C 178.556 117.708,179.168 117.200,178.938 117.200 C 178.708 117.200,177.818 117.717,176.960 118.348 M243.606 120.633 C 243.609 121.055,243.795 121.670,244.018 122.000 C 244.315 122.438,244.352 122.276,244.156 121.400 C 243.827 119.929,243.598 119.610,243.606 120.633 M155.000 123.200 C 154.848 123.891,154.814 124.547,154.924 124.657 C 155.034 124.767,155.248 124.291,155.400 123.600 C 155.552 122.909,155.586 122.253,155.476 122.143 C 155.366 122.033,155.152 122.509,155.000 123.200 M227.425 124.700 C 227.775 125.525,228.163 127.865,228.289 129.900 C 228.415 131.935,228.632 133.600,228.772 133.600 C 229.239 133.600,228.439 126.190,227.809 124.684 C 227.468 123.868,227.099 123.200,226.989 123.200 C 226.879 123.200,227.075 123.875,227.425 124.700 M244.477 124.000 C 244.467 124.550,244.603 125.810,244.780 126.800 L 245.100 128.600 245.103 127.000 C 245.104 126.120,244.968 124.860,244.800 124.200 C 244.523 123.113,244.493 123.094,244.477 124.000 M154.464 129.700 C 154.429 131.845,154.535 133.600,154.700 133.601 C 154.865 133.601,154.950 132.386,154.890 130.901 C 154.696 126.155,154.530 125.687,154.464 129.700 M170.937 130.600 C 170.939 132.360,171.009 133.030,171.093 132.089 C 171.178 131.149,171.177 129.709,171.091 128.889 C 171.005 128.070,170.936 128.840,170.937 130.600 M119.423 138.747 C 118.775 138.886,155.026 139.000,199.981 139.000 C 244.936 139.000,281.015 138.875,280.158 138.723 C 278.212 138.377,121.037 138.401,119.423 138.747 M115.800 139.600 L 115.000 139.944 115.800 139.966 C 116.240 139.978,116.870 139.813,117.200 139.600 C 117.995 139.086,116.996 139.086,115.800 139.600 M282.800 139.582 C 283.130 139.805,283.745 139.991,284.167 139.994 C 285.190 140.002,284.871 139.773,283.400 139.444 C 282.524 139.248,282.362 139.285,282.800 139.582 M287.200 140.983 C 287.200 141.163,289.602 142.400,289.950 142.400 C 290.297 142.400,288.694 141.367,287.900 141.079 C 287.515 140.939,287.200 140.896,287.200 140.983 M109.400 142.400 C 108.740 142.837,108.380 143.192,108.600 143.188 C 109.001 143.182,111.176 141.623,110.800 141.612 C 110.690 141.608,110.060 141.963,109.400 142.400 M290.400 142.533 C 290.400 142.621,291.165 143.196,292.100 143.810 C 293.035 144.424,295.052 146.203,296.582 147.763 C 298.445 149.664,298.919 150.026,298.017 148.861 C 296.249 146.576,290.400 141.717,290.400 142.533 M105.853 144.814 C 104.782 145.686,104.062 146.395,104.253 146.388 C 104.614 146.376,108.352 143.222,108.000 143.226 C 107.890 143.227,106.924 143.942,105.853 144.814 M102.198 148.159 C 101.979 148.466,101.383 149.276,100.873 149.959 C 99.471 151.835,100.102 151.446,101.779 149.400 C 102.590 148.410,103.106 147.600,102.925 147.600 C 102.744 147.600,102.417 147.851,102.198 148.159 M99.014 152.635 C 98.641 153.204,98.405 153.738,98.489 153.822 C 98.573 153.907,98.958 153.441,99.344 152.788 C 100.206 151.328,99.948 151.209,99.014 152.635 M300.586 153.100 C 300.935 153.815,301.306 154.400,301.410 154.400 C 301.808 154.400,301.552 153.763,300.767 152.800 L 299.952 151.800 300.586 153.100 M301.600 154.956 C 301.600 155.365,303.184 158.542,303.191 158.149 C 303.203 157.565,302.049 154.800,301.795 154.800 C 301.688 154.800,301.600 154.870,301.600 154.956 M96.955 156.700 C 96.834 157.085,96.570 157.813,96.367 158.319 C 96.165 158.824,96.015 159.544,96.034 159.919 C 96.056 160.351,96.191 160.234,96.403 159.600 C 97.234 157.116,97.530 156.000,97.360 156.000 C 97.258 156.000,97.076 156.315,96.955 156.700 M303.458 160.000 C 303.775 161.725,304.002 162.051,303.994 160.767 C 303.991 160.235,303.811 159.530,303.594 159.200 C 303.318 158.778,303.277 159.015,303.458 160.000 M95.456 161.684 C 95.321 162.188,95.235 163.590,95.264 164.800 C 95.315 166.885,95.332 166.843,95.603 164.000 C 95.904 160.837,95.862 160.171,95.456 161.684 M304.200 219.000 C 304.200 250.376,304.317 275.632,304.460 275.124 C 304.603 274.616,304.720 249.360,304.720 219.000 C 304.720 188.640,304.603 163.384,304.460 162.876 C 304.317 162.368,304.200 187.624,304.200 219.000 M94.994 218.800 C 94.994 247.290,95.042 258.945,95.100 244.700 C 95.158 230.455,95.158 207.145,95.100 192.900 C 95.042 178.655,94.994 190.310,94.994 218.800 M197.913 170.295 C 199.076 170.376,200.876 170.376,201.913 170.293 C 202.951 170.211,202.000 170.145,199.800 170.146 C 197.600 170.147,196.751 170.214,197.913 170.295 M191.800 170.800 C 190.439 171.044,190.379 171.092,191.400 171.120 C 192.060 171.139,193.320 171.005,194.200 170.823 C 196.293 170.390,194.202 170.370,191.800 170.800 M207.200 170.994 C 211.031 171.701,215.199 172.852,218.000 173.975 C 219.210 174.460,220.020 174.692,219.800 174.491 C 218.552 173.348,210.464 170.997,206.600 170.653 C 204.273 170.446,204.291 170.456,207.200 170.994 M187.680 171.595 C 186.954 171.767,186.247 172.020,186.109 172.158 C 185.812 172.455,188.254 172.015,189.400 171.565 C 190.420 171.164,189.424 171.182,187.680 171.595 M177.400 175.628 C 176.520 176.062,175.350 176.780,174.800 177.224 C 174.250 177.668,175.060 177.363,176.600 176.547 C 180.305 174.583,180.895 173.906,177.400 175.628 M222.400 176.020 C 223.787 176.961,224.578 177.235,223.600 176.436 C 223.050 175.986,222.420 175.617,222.200 175.615 C 221.980 175.613,222.070 175.796,222.400 176.020 M224.833 177.364 C 225.446 177.967,229.244 180.394,229.028 180.045 C 228.707 179.526,225.382 177.200,224.961 177.200 C 224.799 177.200,224.742 177.274,224.833 177.364 M171.358 179.469 C 168.961 181.268,165.521 184.400,165.942 184.400 C 166.112 184.400,166.779 183.848,167.425 183.174 C 168.071 182.499,169.725 181.121,171.100 180.112 C 173.376 178.441,173.868 178.000,173.458 178.000 C 173.379 178.000,172.434 178.661,171.358 179.469 M232.838 183.620 C 234.728 185.479,237.045 188.035,237.986 189.300 C 239.997 192.005,240.572 192.375,238.831 189.845 C 237.154 187.407,233.938 183.950,231.474 181.935 C 230.135 180.841,230.619 181.438,232.838 183.620 M163.371 186.741 C 162.475 187.763,161.338 189.230,160.844 190.000 L 159.946 191.400 161.073 190.003 C 161.693 189.235,162.990 187.750,163.955 186.703 C 164.920 185.656,165.550 184.818,165.355 184.841 C 165.160 184.863,164.267 185.718,163.371 186.741 M192.093 200.667 C 192.023 208.275,191.878 210.783,191.500 210.935 C 191.108 211.093,191.111 211.144,191.513 211.168 C 192.369 211.221,192.419 210.537,192.300 200.392 L 192.185 190.600 192.093 200.667 M158.456 193.513 C 156.393 196.728,152.855 204.988,153.336 205.469 C 153.425 205.558,153.805 204.679,154.181 203.516 C 154.974 201.058,157.943 194.789,159.208 192.900 C 159.687 192.185,159.990 191.600,159.881 191.600 C 159.772 191.600,159.131 192.461,158.456 193.513 M240.615 193.100 C 241.956 195.185,242.400 195.777,242.400 195.480 C 242.400 195.096,240.355 192.000,240.101 192.000 C 239.995 192.000,240.226 192.495,240.615 193.100 M243.485 198.278 C 243.974 199.552,245.168 201.801,245.184 201.478 C 245.206 201.041,243.625 197.600,243.403 197.600 C 243.305 197.600,243.342 197.905,243.485 198.278 M245.216 202.125 C 245.192 202.611,246.467 206.400,246.654 206.400 C 246.743 206.400,246.693 205.905,246.543 205.300 C 246.222 204.008,245.238 201.654,245.216 202.125 M152.650 207.250 C 152.317 208.917,152.640 209.240,153.000 207.600 C 153.152 206.909,153.193 206.259,153.091 206.158 C 152.989 206.056,152.791 206.547,152.650 207.250 M246.828 207.633 C 246.844 208.165,247.019 208.960,247.219 209.400 C 247.471 209.958,247.507 209.715,247.338 208.600 C 247.055 206.743,246.787 206.236,246.828 207.633 M151.815 211.415 C 151.661 212.654,151.624 213.757,151.734 213.867 C 151.844 213.977,152.061 213.054,152.215 211.815 C 152.370 210.577,152.407 209.473,152.297 209.363 C 152.187 209.253,151.970 210.177,151.815 211.415 M207.932 211.293 C 208.094 211.454,212.720 211.634,218.213 211.693 L 228.200 211.800 228.200 219.000 L 228.200 226.200 218.033 226.400 C 210.241 226.553,207.842 226.719,207.763 227.110 C 207.706 227.390,207.751 227.436,207.863 227.210 C 207.994 226.947,211.552 226.800,217.801 226.800 C 223.154 226.800,227.819 226.691,228.167 226.557 C 229.025 226.228,229.125 212.368,228.276 211.663 C 227.683 211.171,207.442 210.803,207.932 211.293 M247.882 214.400 C 248.003 216.490,248.169 218.275,248.251 218.367 C 248.529 218.678,248.343 214.210,248.002 212.400 C 247.764 211.138,247.728 211.737,247.882 214.400 M170.964 219.000 C 170.963 222.740,171.023 224.324,171.097 222.520 C 171.171 220.715,171.172 217.655,171.098 215.720 C 171.025 213.784,170.964 215.260,170.964 219.000 M151.342 219.000 C 151.341 220.980,151.408 221.840,151.492 220.912 C 151.576 219.984,151.577 218.364,151.495 217.312 C 151.412 216.260,151.343 217.020,151.342 219.000 M247.869 223.149 C 247.701 225.210,247.645 226.979,247.745 227.078 C 248.005 227.339,248.507 221.560,248.326 220.385 C 248.243 219.843,248.037 221.087,247.869 223.149 M151.695 225.000 C 151.695 225.660,151.832 226.740,152.000 227.400 L 152.305 228.600 152.305 227.400 C 152.305 226.740,152.168 225.660,152.000 225.000 L 151.695 223.800 151.695 225.000 M181.693 226.696 L 191.987 226.813 192.103 236.907 L 192.220 247.000 192.210 236.800 L 192.200 226.600 181.800 226.589 L 171.400 226.579 181.693 226.696 M246.984 229.300 C 246.669 231.166,244.508 237.962,244.026 238.600 C 243.618 239.140,243.182 240.400,243.403 240.400 C 243.715 240.400,245.242 236.780,246.194 233.778 C 247.165 230.720,247.809 227.600,247.470 227.600 C 247.360 227.600,247.141 228.365,246.984 229.300 M152.468 229.600 C 152.488 230.639,153.118 232.346,153.132 231.400 C 153.138 230.960,152.989 230.240,152.800 229.800 C 152.589 229.310,152.461 229.232,152.468 229.600 M153.400 233.300 C 153.885 235.014,155.326 238.602,155.691 239.000 C 155.892 239.220,155.663 238.410,155.181 237.200 C 154.700 235.990,154.138 234.415,153.934 233.700 C 153.730 232.985,153.469 232.400,153.354 232.400 C 153.240 232.400,153.261 232.805,153.400 233.300 M241.570 243.266 C 241.298 243.780,240.813 244.605,240.492 245.100 C 240.171 245.595,239.995 246.000,240.101 246.000 C 240.436 246.000,242.469 242.736,242.262 242.529 C 242.154 242.420,241.842 242.752,241.570 243.266 M157.600 242.929 C 157.600 243.358,161.496 249.088,161.999 249.399 C 162.226 249.539,161.565 248.427,160.531 246.927 C 159.498 245.427,158.415 243.845,158.126 243.411 C 157.837 242.977,157.600 242.760,157.600 242.929 M207.090 246.911 C 206.865 247.497,205.937 247.596,199.716 247.701 L 192.600 247.820 199.600 247.904 C 206.517 247.987,207.864 247.793,207.522 246.766 C 207.395 246.385,207.276 246.425,207.090 246.911 M238.092 248.500 C 237.209 249.655,235.655 251.483,234.638 252.561 C 233.621 253.640,232.859 254.592,232.944 254.678 C 233.133 254.867,237.908 249.502,239.155 247.700 C 240.575 245.648,239.860 246.185,238.092 248.500 M163.622 251.470 C 167.060 255.137,171.640 259.017,173.650 259.967 C 174.465 260.352,174.494 260.344,173.857 259.908 C 171.333 258.182,167.068 254.565,165.072 252.458 C 163.791 251.106,162.631 250.000,162.493 250.000 C 162.356 250.000,162.863 250.661,163.622 251.470 M230.971 256.103 L 229.800 257.397 231.000 256.399 C 231.660 255.849,232.275 255.355,232.367 255.300 C 232.458 255.245,232.445 255.112,232.338 255.004 C 232.230 254.896,231.615 255.391,230.971 256.103 M227.000 259.028 C 225.680 259.966,223.655 261.212,222.500 261.797 C 220.455 262.833,219.691 263.441,221.100 262.912 C 222.288 262.465,228.166 258.871,229.567 257.735 C 230.776 256.755,228.799 257.751,227.000 259.028 M175.400 261.066 C 176.411 261.853,182.778 264.964,182.952 264.755 C 183.023 264.670,181.173 263.665,178.841 262.522 C 176.508 261.379,174.960 260.724,175.400 261.066 M217.000 264.272 C 214.443 265.341,213.550 265.898,215.200 265.394 C 216.606 264.966,220.284 263.265,219.800 263.268 C 219.580 263.269,218.320 263.721,217.000 264.272 M186.600 266.000 C 187.040 266.189,187.670 266.344,188.000 266.344 C 188.378 266.344,188.304 266.217,187.800 266.000 C 187.360 265.811,186.730 265.656,186.400 265.656 C 186.022 265.656,186.096 265.783,186.600 266.000 M211.800 266.000 C 211.296 266.217,211.222 266.344,211.600 266.344 C 211.930 266.344,212.560 266.189,213.000 266.000 C 213.504 265.783,213.578 265.656,213.200 265.656 C 212.870 265.656,212.240 265.811,211.800 266.000 M189.800 266.800 C 190.240 266.989,191.050 267.138,191.600 267.132 L 192.600 267.120 191.600 266.800 C 191.050 266.624,190.240 266.474,189.800 266.468 L 189.000 266.456 189.800 266.800 M208.000 266.800 L 207.000 267.120 208.000 267.132 C 208.550 267.138,209.360 266.989,209.800 266.800 L 210.600 266.456 209.800 266.468 C 209.360 266.474,208.550 266.624,208.000 266.800 M195.600 267.658 C 197.957 268.028,202.188 268.029,204.200 267.661 C 205.191 267.479,203.517 267.369,199.800 267.372 C 196.018 267.374,194.465 267.480,195.600 267.658 M95.259 273.080 C 95.180 275.863,96.890 282.099,98.089 283.400 C 98.291 283.620,98.062 282.810,97.579 281.600 C 96.363 278.556,95.985 277.043,95.627 273.800 C 95.325 271.072,95.316 271.054,95.259 273.080 M303.654 277.067 C 303.625 277.544,303.496 278.264,303.370 278.667 C 303.152 279.361,303.164 279.362,303.596 278.688 C 303.847 278.297,303.975 277.577,303.881 277.088 C 303.709 276.201,303.709 276.201,303.654 277.067 M301.509 282.893 C 300.689 284.622,300.174 285.940,300.365 285.821 C 300.840 285.528,303.280 280.422,303.125 280.049 C 303.056 279.884,302.329 281.164,301.509 282.893 M98.400 284.142 C 98.400 284.862,101.728 289.197,103.964 291.387 C 105.304 292.701,106.400 293.656,106.400 293.510 C 106.400 293.364,105.421 292.320,104.225 291.188 C 103.029 290.057,101.370 288.112,100.539 286.866 C 98.749 284.184,98.400 283.739,98.400 284.142 M298.575 287.868 C 297.959 288.676,297.659 289.211,297.909 289.056 C 298.421 288.740,300.153 286.400,299.875 286.400 C 299.776 286.400,299.191 287.061,298.575 287.868 M295.689 291.027 C 294.967 291.782,294.527 292.400,294.710 292.400 C 294.893 292.400,295.654 291.770,296.400 291.000 C 297.146 290.230,297.587 289.612,297.378 289.627 C 297.170 289.643,296.410 290.273,295.689 291.027 M291.887 294.168 C 289.526 295.802,288.964 296.375,290.706 295.372 C 292.050 294.599,294.356 292.823,294.000 292.836 C 293.890 292.841,292.939 293.440,291.887 294.168 M109.200 295.390 C 109.200 295.695,111.656 296.877,111.862 296.671 C 111.965 296.568,111.471 296.195,110.763 295.842 C 109.376 295.150,109.200 295.099,109.200 295.390 M117.800 298.781 C 118.568 299.129,120.710 299.356,120.367 299.053 C 120.275 298.972,119.480 298.796,118.600 298.662 C 117.485 298.493,117.242 298.529,117.800 298.781 M280.400 298.800 L 279.400 299.120 280.400 299.132 C 280.950 299.138,281.760 298.989,282.200 298.800 L 283.000 298.456 282.200 298.468 C 281.760 298.474,280.950 298.624,280.400 298.800 M161.332 299.500 C 182.634 299.557,217.374 299.557,238.532 299.500 C 259.689 299.443,242.260 299.396,199.800 299.396 C 157.340 299.396,140.029 299.443,161.332 299.500 " stroke="none" fill="#fcc4c4" fill-rule="evenodd"></path><path id="path4" d="M190.927 99.100 C 195.947 99.163,204.047 99.163,208.927 99.100 C 213.807 99.036,209.700 98.984,199.800 98.984 C 189.900 98.984,185.907 99.036,190.927 99.100 M191.127 116.700 C 196.037 116.763,203.957 116.763,208.727 116.700 C 213.497 116.636,209.480 116.584,199.800 116.584 C 190.120 116.584,186.217 116.636,191.127 116.700 M154.649 122.615 C 154.512 122.973,154.415 123.566,154.434 123.933 C 154.453 124.300,154.627 124.069,154.821 123.420 C 155.198 122.158,155.065 121.533,154.649 122.615 M245.076 125.446 C 245.340 128.155,245.532 128.533,245.562 126.400 C 245.576 125.410,245.430 124.351,245.237 124.046 C 245.021 123.705,244.959 124.242,245.076 125.446 M154.064 129.876 C 154.029 131.898,154.135 133.637,154.300 133.739 C 154.465 133.842,154.550 132.728,154.490 131.263 C 154.297 126.623,154.130 126.079,154.064 129.876 M171.568 127.100 C 171.222 130.361,171.049 133.904,171.246 133.685 C 171.528 133.370,172.021 126.800,171.762 126.800 C 171.673 126.800,171.586 126.935,171.568 127.100 M119.338 138.306 C 119.084 138.468,155.393 138.600,200.023 138.600 C 244.654 138.600,280.862 138.478,280.485 138.328 C 279.553 137.958,119.919 137.936,119.338 138.306 M102.800 147.000 C 101.828 147.990,101.123 148.800,101.233 148.800 C 101.343 148.800,102.228 147.990,103.200 147.000 C 104.172 146.010,104.877 145.200,104.767 145.200 C 104.657 145.200,103.772 146.010,102.800 147.000 M296.800 147.064 C 296.800 147.282,297.295 147.897,297.900 148.430 L 299.000 149.400 298.000 148.200 C 297.450 147.540,296.955 146.925,296.900 146.833 C 296.845 146.742,296.800 146.845,296.800 147.064 M94.652 164.500 C 94.318 165.748,94.392 272.838,94.728 273.685 C 94.878 274.062,95.000 249.447,95.000 218.985 C 95.000 188.523,94.976 163.600,94.947 163.600 C 94.917 163.600,94.785 164.005,94.652 164.500 M304.994 219.000 C 304.994 248.040,305.042 259.861,305.100 245.269 C 305.158 230.677,305.158 206.917,305.100 192.469 C 305.042 178.021,304.994 189.960,304.994 219.000 M195.800 170.807 C 194.920 170.969,196.000 171.009,198.200 170.896 C 200.400 170.782,202.275 170.625,202.367 170.545 C 202.656 170.293,197.471 170.500,195.800 170.807 M203.300 171.076 C 203.685 171.176,204.315 171.176,204.700 171.076 C 205.085 170.975,204.770 170.893,204.000 170.893 C 203.230 170.893,202.915 170.975,203.300 171.076 M172.000 179.649 C 170.606 180.871,170.605 180.872,171.888 180.019 C 172.596 179.548,173.282 178.991,173.412 178.781 C 173.797 178.157,173.477 178.354,172.000 179.649 M167.200 183.633 L 164.200 186.465 167.300 183.765 C 170.081 181.343,170.632 180.799,170.300 180.801 C 170.245 180.801,168.850 182.075,167.200 183.633 M233.612 185.007 C 235.256 186.771,236.682 188.159,236.782 188.092 C 236.882 188.025,235.537 186.582,233.794 184.885 L 230.625 181.800 233.612 185.007 M162.975 188.100 L 161.800 189.400 163.100 188.225 C 163.815 187.579,164.400 186.994,164.400 186.925 C 164.400 186.616,164.070 186.888,162.975 188.100 M191.773 201.000 C 191.773 206.500,191.830 208.805,191.899 206.123 C 191.968 203.441,191.968 198.941,191.899 196.123 C 191.830 193.305,191.774 195.500,191.773 201.000 M152.600 209.600 C 152.448 210.291,152.407 210.941,152.509 211.042 C 152.611 211.144,152.809 210.653,152.950 209.950 C 153.283 208.283,152.960 207.960,152.600 209.600 M247.073 211.200 C 247.204 212.190,247.376 213.075,247.456 213.167 C 247.757 213.514,247.528 210.964,247.190 210.200 C 246.953 209.666,246.914 209.998,247.073 211.200 M228.317 211.262 C 228.708 211.762,228.806 213.732,228.717 219.324 C 228.653 223.395,228.735 226.641,228.900 226.539 C 229.611 226.098,229.238 211.727,228.500 211.149 C 227.874 210.658,227.855 210.670,228.317 211.262 M151.740 218.800 C 151.740 220.670,151.809 221.435,151.893 220.500 C 151.977 219.565,151.977 218.035,151.893 217.100 C 151.809 216.165,151.740 216.930,151.740 218.800 M247.740 218.800 C 247.740 220.670,247.809 221.435,247.893 220.500 C 247.977 219.565,247.977 218.035,247.893 217.100 C 247.809 216.165,247.740 216.930,247.740 218.800 M247.254 225.600 C 247.219 226.150,247.096 227.050,246.983 227.600 L 246.777 228.600 247.207 227.615 C 247.443 227.074,247.565 226.174,247.478 225.615 L 247.320 224.600 247.254 225.600 M152.468 227.400 C 152.462 227.840,152.611 228.560,152.800 229.000 C 153.238 230.019,153.238 228.968,152.800 227.600 C 152.543 226.796,152.477 226.757,152.468 227.400 M181.400 227.186 L 191.400 227.400 191.614 237.200 L 191.829 247.000 191.814 237.000 L 191.800 227.000 181.600 226.986 L 171.400 226.972 181.400 227.186 M212.900 227.099 C 215.705 227.168,220.295 227.168,223.100 227.099 C 225.905 227.030,223.610 226.974,218.000 226.974 C 212.390 226.974,210.095 227.030,212.900 227.099 M207.370 247.590 C 207.154 247.806,203.757 248.034,199.790 248.100 L 192.600 248.220 199.851 248.310 C 205.886 248.385,207.186 248.299,207.600 247.800 C 208.153 247.134,207.982 246.978,207.370 247.590 M162.000 248.925 C 162.000 248.994,162.585 249.579,163.300 250.225 L 164.600 251.400 163.425 250.100 C 162.330 248.888,162.000 248.616,162.000 248.925 M233.612 252.993 L 230.625 256.200 233.794 253.115 C 235.537 251.418,236.882 249.975,236.782 249.908 C 236.682 249.841,235.256 251.229,233.612 252.993 M164.800 252.125 C 164.800 252.194,165.385 252.779,166.100 253.425 L 167.400 254.600 166.225 253.300 C 165.130 252.088,164.800 251.816,164.800 252.125 M196.700 267.098 C 198.515 267.172,201.485 267.172,203.300 267.098 C 205.115 267.023,203.630 266.963,200.000 266.963 C 196.370 266.963,194.885 267.023,196.700 267.098 M296.800 290.600 C 295.828 291.590,295.123 292.400,295.233 292.400 C 295.343 292.400,296.228 291.590,297.200 290.600 C 298.172 289.610,298.877 288.800,298.767 288.800 C 298.657 288.800,297.772 289.610,296.800 290.600 M103.183 291.300 C 104.841 293.066,105.200 293.384,105.200 293.083 C 105.200 293.019,104.345 292.164,103.300 291.183 L 101.400 289.400 103.183 291.300 M290.600 295.600 C 289.940 296.037,289.580 296.392,289.800 296.388 C 290.201 296.382,292.376 294.823,292.000 294.812 C 291.890 294.808,291.260 295.163,290.600 295.600 M114.400 298.382 C 114.730 298.605,115.345 298.791,115.767 298.794 C 116.790 298.802,116.471 298.573,115.000 298.244 C 114.124 298.048,113.962 298.085,114.400 298.382 M280.600 299.200 L 279.000 299.486 280.400 299.537 C 281.170 299.565,282.070 299.413,282.400 299.200 C 283.055 298.777,282.962 298.777,280.600 299.200 M118.500 299.476 C 118.885 299.576,119.515 299.576,119.900 299.476 C 120.285 299.375,119.970 299.293,119.200 299.293 C 118.430 299.293,118.115 299.375,118.500 299.476 M160.900 299.900 C 182.405 299.957,217.595 299.957,239.100 299.900 C 260.605 299.843,243.010 299.796,200.000 299.796 C 156.990 299.796,139.395 299.843,160.900 299.900 " stroke="none" fill="#fca49c" fill-rule="evenodd"></path></g></svg>