<svg id="svg" version="1.1" xmlns="http://www.w3.org/2000/svg" xmlns:xlink="http://www.w3.org/1999/xlink" width="400" height="400" viewBox="0, 0, 400,400"><g id="svgg"><path id="path0" d="M179.000 0.463 C 177.020 0.641,174.140 0.894,172.600 1.026 C 171.060 1.157,169.629 1.430,169.420 1.632 C 169.211 1.835,168.097 2.000,166.944 2.000 C 165.791 2.000,164.736 2.180,164.600 2.400 C 164.464 2.620,163.474 2.800,162.400 2.800 C 161.326 2.800,160.336 2.980,160.200 3.200 C 160.064 3.420,159.243 3.600,158.376 3.600 C 157.509 3.600,156.800 3.780,156.800 4.000 C 156.800 4.220,156.001 4.400,155.024 4.400 C 154.047 4.400,153.136 4.580,153.000 4.800 C 152.864 5.020,152.043 5.200,151.176 5.200 C 150.309 5.200,149.600 5.380,149.600 5.600 C 149.600 5.820,149.060 6.000,148.400 6.000 C 147.740 6.000,147.200 6.180,147.200 6.400 C 147.200 6.620,146.581 6.800,145.824 6.800 C 145.067 6.800,144.336 6.980,144.200 7.200 C 144.064 7.420,143.423 7.600,142.776 7.600 C 142.129 7.600,141.600 7.780,141.600 8.000 C 141.600 8.220,141.105 8.402,140.500 8.404 C 139.895 8.406,137.600 9.032,135.400 9.795 C 133.200 10.559,131.085 11.187,130.700 11.192 C 130.315 11.196,130.000 11.380,130.000 11.600 C 130.000 11.820,129.550 12.000,129.000 12.000 C 128.450 12.000,128.000 12.180,128.000 12.400 C 128.000 12.620,127.640 12.800,127.200 12.800 C 126.760 12.800,126.400 12.980,126.400 13.200 C 126.400 13.420,125.860 13.600,125.200 13.600 C 124.540 13.600,124.000 13.780,124.000 14.000 C 124.000 14.220,123.764 14.400,123.475 14.400 C 123.186 14.400,122.205 14.760,121.294 15.200 C 120.384 15.640,119.360 16.000,119.019 16.000 C 118.679 16.000,118.400 16.180,118.400 16.400 C 118.400 16.620,118.040 16.800,117.600 16.800 C 117.160 16.800,116.800 16.980,116.800 17.200 C 116.800 17.420,116.451 17.600,116.024 17.600 C 115.597 17.600,115.136 17.780,115.000 18.000 C 114.864 18.220,114.403 18.400,113.976 18.400 C 113.549 18.400,113.200 18.580,113.200 18.800 C 113.200 19.020,112.840 19.200,112.400 19.200 C 111.960 19.200,111.600 19.380,111.600 19.600 C 111.600 19.820,111.322 20.000,110.983 20.000 C 110.644 20.000,109.980 20.360,109.508 20.800 C 109.036 21.240,108.396 21.600,108.086 21.600 C 107.777 21.600,107.046 21.932,106.462 22.337 C 105.878 22.743,104.815 23.327,104.100 23.635 C 103.385 23.943,102.800 24.331,102.800 24.498 C 102.800 24.664,102.526 24.800,102.192 24.800 C 101.858 24.800,100.871 25.250,100.000 25.800 C 99.129 26.350,98.299 26.800,98.156 26.800 C 98.014 26.800,96.885 27.477,95.649 28.305 C 94.412 29.133,92.905 30.063,92.300 30.373 C 91.695 30.682,91.200 31.085,91.200 31.268 C 91.200 31.450,90.964 31.600,90.675 31.600 C 90.387 31.600,89.764 31.960,89.292 32.400 C 88.820 32.840,88.196 33.200,87.905 33.200 C 87.614 33.200,87.117 33.560,86.800 34.000 C 86.483 34.440,86.020 34.800,85.771 34.800 C 85.522 34.800,84.754 35.340,84.063 36.000 C 83.372 36.660,82.575 37.200,82.292 37.200 C 82.009 37.200,81.517 37.560,81.200 38.000 C 80.883 38.440,80.415 38.800,80.160 38.800 C 79.905 38.800,78.955 39.520,78.048 40.400 C 77.141 41.280,76.296 42.000,76.171 42.000 C 76.046 42.000,75.692 42.225,75.385 42.500 C 74.522 43.274,73.915 43.741,72.400 44.798 C 71.630 45.335,70.370 46.416,69.600 47.200 C 68.830 47.984,67.570 49.064,66.800 49.600 C 66.030 50.136,63.828 52.200,61.906 54.187 C 57.695 58.542,58.542 57.695,54.187 61.906 C 52.200 63.828,50.136 66.030,49.600 66.800 C 49.064 67.570,47.984 68.830,47.200 69.600 C 46.416 70.370,45.335 71.630,44.798 72.400 C 43.741 73.915,43.274 74.522,42.500 75.385 C 42.225 75.692,42.000 76.046,42.000 76.171 C 42.000 76.296,41.280 77.141,40.400 78.048 C 39.520 78.955,38.800 79.905,38.800 80.160 C 38.800 80.415,38.440 80.883,38.000 81.200 C 37.560 81.517,37.200 82.009,37.200 82.292 C 37.200 82.575,36.660 83.372,36.000 84.063 C 35.340 84.754,34.800 85.522,34.800 85.771 C 34.800 86.020,34.440 86.483,34.000 86.800 C 33.560 87.117,33.200 87.697,33.200 88.088 C 33.200 88.480,33.050 88.800,32.868 88.800 C 32.685 88.800,32.280 89.295,31.968 89.900 C 31.655 90.505,31.085 91.349,30.700 91.775 C 30.315 92.202,30.000 92.699,30.000 92.880 C 30.000 93.061,29.280 94.264,28.400 95.553 C 27.520 96.842,26.800 98.014,26.800 98.156 C 26.800 98.299,26.350 99.129,25.800 100.000 C 25.250 100.871,24.800 101.858,24.800 102.192 C 24.800 102.526,24.664 102.800,24.498 102.800 C 24.331 102.800,23.943 103.385,23.635 104.100 C 23.327 104.815,22.743 105.878,22.337 106.462 C 21.932 107.046,21.600 107.777,21.600 108.086 C 21.600 108.396,21.240 109.036,20.800 109.508 C 20.360 109.980,20.000 110.644,20.000 110.983 C 20.000 111.322,19.820 111.600,19.600 111.600 C 19.380 111.600,19.200 111.960,19.200 112.400 C 19.200 112.840,19.020 113.200,18.800 113.200 C 18.580 113.200,18.400 113.549,18.400 113.976 C 18.400 114.403,18.220 114.864,18.000 115.000 C 17.780 115.136,17.600 115.597,17.600 116.024 C 17.600 116.451,17.420 116.800,17.200 116.800 C 16.980 116.800,16.800 117.160,16.800 117.600 C 16.800 118.040,16.620 118.400,16.400 118.400 C 16.180 118.400,16.000 118.679,16.000 119.019 C 16.000 119.360,15.640 120.384,15.200 121.294 C 14.760 122.205,14.400 123.186,14.400 123.475 C 14.400 123.764,14.220 124.000,14.000 124.000 C 13.780 124.000,13.600 124.540,13.600 125.200 C 13.600 125.860,13.420 126.400,13.200 126.400 C 12.980 126.400,12.800 126.760,12.800 127.200 C 12.800 127.640,12.620 128.000,12.400 128.000 C 12.180 128.000,12.000 128.450,12.000 129.000 C 12.000 129.550,11.820 130.000,11.600 130.000 C 11.380 130.000,11.196 130.315,11.192 130.700 C 11.187 131.085,10.559 133.200,9.795 135.400 C 9.032 137.600,8.406 139.895,8.404 140.500 C 8.402 141.105,8.220 141.600,8.000 141.600 C 7.780 141.600,7.600 142.129,7.600 142.776 C 7.600 143.423,7.420 144.064,7.200 144.200 C 6.980 144.336,6.800 145.067,6.800 145.824 C 6.800 146.581,6.620 147.200,6.400 147.200 C 6.180 147.200,6.000 147.740,6.000 148.400 C 6.000 149.060,5.820 149.600,5.600 149.600 C 5.380 149.600,5.200 150.309,5.200 151.176 C 5.200 152.043,5.020 152.864,4.800 153.000 C 4.580 153.136,4.400 154.047,4.400 155.024 C 4.400 156.001,4.220 156.800,4.000 156.800 C 3.780 156.800,3.600 157.509,3.600 158.376 C 3.600 159.243,3.420 160.064,3.200 160.200 C 2.980 160.336,2.800 161.326,2.800 162.400 C 2.800 163.474,2.620 164.464,2.400 164.600 C 2.180 164.736,2.000 165.791,2.000 166.944 C 2.000 168.097,1.835 169.211,1.632 169.420 C 1.430 169.629,1.165 170.970,1.043 172.400 C 0.920 173.830,0.655 176.890,0.453 179.200 C -0.030 184.716,-0.026 215.076,0.458 220.200 C 0.666 222.400,0.932 225.685,1.048 227.500 C 1.164 229.315,1.426 230.800,1.629 230.800 C 1.833 230.800,2.000 231.790,2.000 233.000 C 2.000 234.210,2.180 235.200,2.400 235.200 C 2.620 235.200,2.800 236.100,2.800 237.200 C 2.800 238.300,2.980 239.200,3.200 239.200 C 3.420 239.200,3.600 240.100,3.600 241.200 C 3.600 242.300,3.780 243.200,4.000 243.200 C 4.220 243.200,4.400 244.100,4.400 245.200 C 4.400 246.300,4.580 247.200,4.800 247.200 C 5.020 247.200,5.200 247.740,5.200 248.400 C 5.200 249.060,5.380 249.600,5.600 249.600 C 5.820 249.600,6.000 250.320,6.000 251.200 C 6.000 252.080,6.180 252.800,6.400 252.800 C 6.620 252.800,6.800 253.430,6.800 254.200 C 6.800 254.970,6.980 255.600,7.200 255.600 C 7.420 255.600,7.600 256.140,7.600 256.800 C 7.600 257.460,7.780 258.000,8.000 258.000 C 8.220 258.000,8.400 258.551,8.400 259.225 C 8.400 260.545,9.498 264.359,10.058 264.980 C 10.246 265.189,10.400 265.763,10.400 266.256 C 10.400 266.749,10.544 267.242,10.721 267.351 C 10.897 267.460,11.293 268.472,11.600 269.600 C 11.907 270.728,12.303 271.740,12.479 271.849 C 12.656 271.958,12.800 272.397,12.800 272.824 C 12.800 273.251,12.980 273.600,13.200 273.600 C 13.420 273.600,13.600 274.140,13.600 274.800 C 13.600 275.460,13.780 276.000,14.000 276.000 C 14.220 276.000,14.400 276.360,14.400 276.800 C 14.400 277.240,14.580 277.600,14.800 277.600 C 15.020 277.600,15.200 277.949,15.200 278.376 C 15.200 278.803,15.380 279.264,15.600 279.400 C 15.820 279.536,16.000 279.997,16.000 280.424 C 16.000 280.851,16.180 281.200,16.400 281.200 C 16.620 281.200,16.800 281.650,16.800 282.200 C 16.800 282.750,16.980 283.200,17.200 283.200 C 17.420 283.200,17.600 283.560,17.600 284.000 C 17.600 284.440,17.780 284.800,18.000 284.800 C 18.220 284.800,18.400 285.160,18.400 285.600 C 18.400 286.040,18.580 286.400,18.800 286.400 C 19.020 286.400,19.200 286.850,19.200 287.400 C 19.200 287.950,19.380 288.400,19.600 288.400 C 19.820 288.400,20.000 288.760,20.000 289.200 C 20.000 289.640,20.180 290.000,20.400 290.000 C 20.620 290.000,20.800 290.320,20.800 290.712 C 20.800 291.103,21.160 291.683,21.600 292.000 C 22.040 292.317,22.400 292.897,22.400 293.288 C 22.400 293.680,22.580 294.000,22.800 294.000 C 23.020 294.000,23.200 294.360,23.200 294.800 C 23.200 295.240,23.380 295.600,23.600 295.600 C 23.820 295.600,24.000 295.960,24.000 296.400 C 24.000 296.840,24.180 297.200,24.400 297.200 C 24.620 297.200,24.800 297.560,24.800 298.000 C 24.800 298.440,24.980 298.800,25.200 298.800 C 25.420 298.800,25.600 299.138,25.600 299.551 C 25.600 299.964,25.870 300.526,26.200 300.800 C 26.530 301.074,26.800 301.447,26.800 301.629 C 26.800 301.811,27.340 302.760,28.000 303.738 C 28.660 304.716,29.200 305.632,29.200 305.775 C 29.200 305.917,29.560 306.420,30.000 306.892 C 30.440 307.364,30.800 307.987,30.800 308.275 C 30.800 308.564,30.958 308.800,31.151 308.800 C 31.345 308.800,31.727 309.340,32.000 310.000 C 32.273 310.660,32.655 311.200,32.849 311.200 C 33.042 311.200,33.200 311.425,33.200 311.700 C 33.201 311.975,33.647 312.718,34.192 313.352 C 34.737 313.986,35.069 314.689,34.930 314.914 C 34.784 315.149,34.873 315.202,35.138 315.038 C 35.399 314.877,35.600 314.985,35.600 315.288 C 35.600 315.583,35.960 316.083,36.400 316.400 C 36.840 316.717,37.205 317.162,37.211 317.388 C 37.218 317.615,37.938 318.603,38.811 319.586 C 39.685 320.568,40.400 321.563,40.400 321.797 C 40.400 322.032,40.760 322.483,41.200 322.800 C 41.640 323.117,42.000 323.530,42.000 323.717 C 42.000 323.904,42.225 324.292,42.500 324.580 C 42.775 324.867,43.270 325.498,43.600 325.982 C 44.560 327.391,46.078 329.183,47.810 330.954 C 48.695 331.859,49.860 333.230,50.400 334.000 C 50.939 334.770,52.465 336.434,53.790 337.697 C 57.631 341.358,58.425 342.157,61.600 345.552 C 63.250 347.317,64.836 348.769,65.124 348.780 C 65.412 348.791,65.536 348.980,65.400 349.200 C 65.264 349.420,65.415 349.600,65.736 349.600 C 66.057 349.600,67.195 350.457,68.265 351.505 C 69.335 352.553,70.838 353.857,71.605 354.402 C 72.372 354.948,73.623 355.980,74.383 356.697 C 75.144 357.414,75.911 358.000,76.087 358.000 C 76.263 358.000,76.972 358.540,77.663 359.200 C 78.354 359.860,79.074 360.400,79.263 360.400 C 79.452 360.400,80.172 360.940,80.863 361.600 C 81.554 362.260,82.322 362.800,82.571 362.800 C 82.820 362.800,83.283 363.160,83.600 363.600 C 83.917 364.040,84.380 364.400,84.629 364.400 C 84.878 364.400,85.646 364.940,86.337 365.600 C 87.028 366.260,87.782 366.800,88.013 366.800 C 88.244 366.800,88.820 367.160,89.292 367.600 C 89.764 368.040,90.387 368.400,90.675 368.400 C 90.964 368.400,91.200 368.580,91.200 368.800 C 91.200 369.020,91.390 369.200,91.622 369.200 C 91.854 369.200,93.069 369.894,94.322 370.742 C 95.575 371.590,97.140 372.586,97.800 372.954 C 98.460 373.323,99.540 373.966,100.200 374.383 C 100.860 374.800,101.715 375.155,102.100 375.171 C 102.485 375.187,102.800 375.380,102.800 375.600 C 102.800 375.820,103.160 376.000,103.600 376.000 C 104.040 376.000,104.400 376.180,104.400 376.400 C 104.400 376.620,104.760 376.800,105.200 376.800 C 105.640 376.800,106.000 376.980,106.000 377.200 C 106.000 377.420,106.360 377.600,106.800 377.600 C 107.240 377.600,107.600 377.746,107.600 377.925 C 107.600 378.104,108.230 378.498,109.000 378.800 C 109.770 379.102,110.400 379.496,110.400 379.675 C 110.400 379.854,110.670 380.000,111.000 380.000 C 111.330 380.000,111.600 380.180,111.600 380.400 C 111.600 380.620,111.960 380.800,112.400 380.800 C 112.840 380.800,113.200 380.980,113.200 381.200 C 113.200 381.420,113.650 381.600,114.200 381.600 C 114.750 381.600,115.200 381.780,115.200 382.000 C 115.200 382.220,115.560 382.400,116.000 382.400 C 116.440 382.400,116.800 382.580,116.800 382.800 C 116.800 383.020,117.149 383.200,117.576 383.200 C 118.003 383.200,118.464 383.380,118.600 383.600 C 118.736 383.820,119.287 384.000,119.824 384.000 C 120.361 384.000,120.800 384.180,120.800 384.400 C 120.800 384.620,121.160 384.800,121.600 384.800 C 122.040 384.800,122.400 384.980,122.400 385.200 C 122.400 385.420,122.760 385.600,123.200 385.600 C 123.640 385.600,124.000 385.780,124.000 386.000 C 124.000 386.220,124.439 386.400,124.976 386.400 C 125.513 386.400,126.064 386.580,126.200 386.800 C 126.544 387.357,127.200 387.301,127.200 386.715 C 127.200 386.448,116.629 375.648,103.708 362.715 C 90.787 349.782,80.353 339.200,80.522 339.200 C 80.690 339.200,81.317 339.491,81.914 339.847 L 83.000 340.495 82.000 339.656 C 81.450 339.195,80.871 338.814,80.714 338.809 C 80.556 338.804,79.918 338.302,79.295 337.693 C 78.672 337.084,77.721 336.229,77.181 335.793 C 71.875 331.503,66.499 322.046,64.338 313.200 C 63.371 309.244,63.563 202.692,64.544 199.000 C 68.442 184.318,77.997 173.464,91.876 167.952 C 94.315 166.983,100.486 165.602,102.400 165.596 C 103.170 165.593,104.475 165.480,105.300 165.343 L 106.800 165.095 106.800 152.156 L 106.800 139.217 99.100 139.109 L 91.400 139.000 91.400 121.800 L 91.400 104.600 135.246 104.357 C 159.361 104.224,179.270 104.004,179.489 103.868 C 179.718 103.727,179.978 100.420,180.099 96.111 C 180.266 90.197,180.493 87.920,181.167 85.400 C 185.704 68.445,198.770 56.129,215.800 52.755 C 219.832 51.956,297.001 51.935,300.600 52.731 C 311.236 55.086,320.208 60.184,325.577 66.922 C 326.554 68.149,327.469 69.081,327.610 68.994 C 327.751 68.907,327.867 69.056,327.867 69.325 C 327.867 69.846,329.972 73.200,330.299 73.200 C 330.405 73.200,330.201 72.756,329.846 72.214 C 329.491 71.672,329.200 71.000,329.200 70.721 C 329.200 70.441,342.030 83.035,357.712 98.706 C 373.394 114.378,386.444 127.200,386.712 127.200 C 387.300 127.200,387.358 126.545,386.800 126.200 C 386.580 126.064,386.400 125.513,386.400 124.976 C 386.400 124.439,386.220 124.000,386.000 124.000 C 385.780 124.000,385.600 123.640,385.600 123.200 C 385.600 122.760,385.420 122.400,385.200 122.400 C 384.980 122.400,384.800 122.040,384.800 121.600 C 384.800 121.160,384.620 120.800,384.400 120.800 C 384.180 120.800,384.000 120.361,384.000 119.824 C 384.000 119.287,383.820 118.736,383.600 118.600 C 383.380 118.464,383.200 118.003,383.200 117.576 C 383.200 117.149,383.020 116.800,382.800 116.800 C 382.580 116.800,382.400 116.440,382.400 116.000 C 382.400 115.560,382.220 115.200,382.000 115.200 C 381.780 115.200,381.600 114.750,381.600 114.200 C 381.600 113.650,381.420 113.200,381.200 113.200 C 380.980 113.200,380.800 112.840,380.800 112.400 C 380.800 111.960,380.620 111.600,380.400 111.600 C 380.180 111.600,380.000 111.330,380.000 111.000 C 380.000 110.670,379.854 110.400,379.675 110.400 C 379.496 110.400,379.102 109.770,378.800 109.000 C 378.498 108.230,378.104 107.600,377.925 107.600 C 377.746 107.600,377.600 107.240,377.600 106.800 C 377.600 106.360,377.420 106.000,377.200 106.000 C 376.980 106.000,376.800 105.640,376.800 105.200 C 376.800 104.760,376.620 104.400,376.400 104.400 C 376.180 104.400,376.000 104.040,376.000 103.600 C 376.000 103.160,375.820 102.800,375.600 102.800 C 375.380 102.800,375.187 102.485,375.171 102.100 C 375.155 101.715,374.800 100.860,374.383 100.200 C 373.966 99.540,373.323 98.460,372.954 97.800 C 372.586 97.140,371.590 95.575,370.742 94.322 C 369.894 93.069,369.200 91.854,369.200 91.622 C 369.200 91.390,369.020 91.200,368.800 91.200 C 368.580 91.200,368.400 90.964,368.400 90.675 C 368.400 90.387,368.040 89.764,367.600 89.292 C 367.160 88.820,366.800 88.244,366.800 88.013 C 366.800 87.782,366.260 87.028,365.600 86.337 C 364.940 85.646,364.400 84.878,364.400 84.629 C 364.400 84.380,364.040 83.917,363.600 83.600 C 363.160 83.283,362.800 82.820,362.800 82.571 C 362.800 82.322,362.260 81.554,361.600 80.863 C 360.940 80.172,360.400 79.452,360.400 79.263 C 360.400 79.074,359.860 78.354,359.200 77.663 C 358.540 76.972,358.000 76.263,358.000 76.087 C 358.000 75.911,357.414 75.144,356.697 74.383 C 355.980 73.623,354.948 72.372,354.402 71.605 C 353.857 70.838,352.553 69.335,351.505 68.265 C 350.457 67.195,349.600 66.057,349.600 65.736 C 349.600 65.415,349.420 65.264,349.200 65.400 C 348.980 65.536,348.791 65.412,348.780 65.124 C 348.769 64.836,347.317 63.250,345.552 61.600 C 342.157 58.425,341.358 57.631,337.697 53.790 C 336.434 52.465,334.770 50.939,334.000 50.400 C 333.230 49.860,331.859 48.695,330.954 47.810 C 329.183 46.078,327.391 44.560,325.982 43.600 C 325.498 43.270,324.867 42.775,324.580 42.500 C 324.292 42.225,323.904 42.000,323.717 42.000 C 323.530 42.000,323.117 41.640,322.800 41.200 C 322.483 40.760,322.032 40.400,321.797 40.400 C 321.563 40.400,320.568 39.685,319.586 38.811 C 318.603 37.938,317.615 37.218,317.388 37.211 C 317.162 37.205,316.717 36.840,316.400 36.400 C 316.083 35.960,315.583 35.600,315.288 35.600 C 314.985 35.600,314.877 35.399,315.038 35.138 C 315.202 34.873,315.149 34.784,314.914 34.930 C 314.689 35.069,313.986 34.737,313.352 34.192 C 312.718 33.647,311.975 33.201,311.700 33.200 C 311.425 33.200,311.200 33.042,311.200 32.849 C 311.200 32.655,310.660 32.273,310.000 32.000 C 309.340 31.727,308.800 31.345,308.800 31.151 C 308.800 30.958,308.564 30.800,308.275 30.800 C 307.987 30.800,307.364 30.440,306.892 30.000 C 306.420 29.560,305.917 29.200,305.775 29.200 C 305.632 29.200,304.716 28.660,303.738 28.000 C 302.760 27.340,301.811 26.800,301.629 26.800 C 301.447 26.800,301.074 26.530,300.800 26.200 C 300.526 25.870,299.964 25.600,299.551 25.600 C 299.138 25.600,298.800 25.420,298.800 25.200 C 298.800 24.980,298.440 24.800,298.000 24.800 C 297.560 24.800,297.200 24.620,297.200 24.400 C 297.200 24.180,296.840 24.000,296.400 24.000 C 295.960 24.000,295.600 23.820,295.600 23.600 C 295.600 23.380,295.240 23.200,294.800 23.200 C 294.360 23.200,294.000 23.020,294.000 22.800 C 294.000 22.580,293.680 22.400,293.288 22.400 C 292.897 22.400,292.317 22.040,292.000 21.600 C 291.683 21.160,291.103 20.800,290.712 20.800 C 290.320 20.800,290.000 20.620,290.000 20.400 C 290.000 20.180,289.640 20.000,289.200 20.000 C 288.760 20.000,288.400 19.820,288.400 19.600 C 288.400 19.380,287.950 19.200,287.400 19.200 C 286.850 19.200,286.400 19.020,286.400 18.800 C 286.400 18.580,286.040 18.400,285.600 18.400 C 285.160 18.400,284.800 18.220,284.800 18.000 C 284.800 17.780,284.440 17.600,284.000 17.600 C 283.560 17.600,283.200 17.420,283.200 17.200 C 283.200 16.980,282.750 16.800,282.200 16.800 C 281.650 16.800,281.200 16.620,281.200 16.400 C 281.200 16.180,280.851 16.000,280.424 16.000 C 279.997 16.000,279.536 15.820,279.400 15.600 C 279.264 15.380,278.803 15.200,278.376 15.200 C 277.949 15.200,277.600 15.020,277.600 14.800 C 277.600 14.580,277.240 14.400,276.800 14.400 C 276.360 14.400,276.000 14.220,276.000 14.000 C 276.000 13.780,275.460 13.600,274.800 13.600 C 274.140 13.600,273.600 13.420,273.600 13.200 C 273.600 12.980,273.251 12.800,272.824 12.800 C 272.397 12.800,271.958 12.656,271.849 12.479 C 271.740 12.303,270.728 11.907,269.600 11.600 C 268.472 11.293,267.460 10.897,267.351 10.721 C 267.242 10.544,266.749 10.400,266.256 10.400 C 265.763 10.400,265.189 10.246,264.980 10.058 C 264.359 9.498,260.545 8.400,259.225 8.400 C 258.551 8.400,258.000 8.220,258.000 8.000 C 258.000 7.780,257.460 7.600,256.800 7.600 C 256.140 7.600,255.600 7.420,255.600 7.200 C 255.600 6.980,254.970 6.800,254.200 6.800 C 253.430 6.800,252.800 6.620,252.800 6.400 C 252.800 6.180,252.080 6.000,251.200 6.000 C 250.320 6.000,249.600 5.820,249.600 5.600 C 249.600 5.380,249.060 5.200,248.400 5.200 C 247.740 5.200,247.200 5.020,247.200 4.800 C 247.200 4.580,246.300 4.400,245.200 4.400 C 244.100 4.400,243.200 4.220,243.200 4.000 C 243.200 3.780,242.300 3.600,241.200 3.600 C 240.100 3.600,239.200 3.420,239.200 3.200 C 239.200 2.980,238.300 2.800,237.200 2.800 C 236.100 2.800,235.200 2.620,235.200 2.400 C 235.200 2.180,234.210 2.000,233.000 2.000 C 231.790 2.000,230.800 1.833,230.800 1.629 C 230.800 1.426,229.315 1.164,227.500 1.048 C 225.685 0.932,222.400 0.666,220.200 0.458 C 215.391 0.004,184.081 0.007,179.000 0.463 M335.268 85.600 C 335.288 86.639,335.918 88.346,335.932 87.400 C 335.938 86.960,335.789 86.240,335.600 85.800 C 335.389 85.310,335.261 85.232,335.268 85.600 M336.200 200.000 C 336.200 260.746,336.317 310.032,336.460 309.524 C 336.603 309.016,336.720 259.730,336.720 200.000 C 336.720 140.270,336.603 90.984,336.460 90.476 C 336.317 89.968,336.200 139.254,336.200 200.000 M174.529 139.500 C 181.970 139.561,194.030 139.561,201.329 139.500 C 208.628 139.439,202.540 139.389,187.800 139.389 C 173.060 139.389,167.088 139.439,174.529 139.500 M258.194 256.600 C 258.194 283.880,258.242 294.981,258.300 281.269 C 258.358 267.557,258.358 245.237,258.300 231.669 C 258.242 218.101,258.194 229.320,258.194 256.600 M150.200 239.611 C 143.267 239.794,139.400 240.055,138.600 240.393 C 133.829 242.412,130.197 245.415,128.897 248.417 C 128.520 249.288,128.074 250.000,127.906 250.000 C 127.738 250.000,127.600 250.540,127.600 251.200 C 127.600 251.860,127.420 252.400,127.200 252.400 C 126.960 252.400,126.800 253.992,126.800 256.376 C 126.800 258.596,126.977 260.462,127.200 260.600 C 127.420 260.736,127.600 261.180,127.600 261.586 C 127.600 264.775,135.225 272.400,138.414 272.400 C 138.820 272.400,139.264 272.580,139.400 272.800 C 139.555 273.050,143.604 273.200,150.224 273.200 C 157.625 273.200,160.800 273.332,160.800 273.638 C 160.800 274.517,181.837 273.867,184.253 272.914 C 198.214 267.404,199.638 248.847,186.678 241.307 C 182.815 239.060,178.587 238.863,150.200 239.611 M183.800 240.572 C 184.680 240.933,185.715 241.333,186.100 241.461 C 186.485 241.589,186.800 241.852,186.800 242.047 C 186.800 242.241,186.979 242.400,187.197 242.400 C 187.680 242.400,189.357 243.790,190.762 245.356 C 191.333 245.991,191.987 246.711,192.215 246.956 C 194.361 249.252,195.820 256.758,194.786 260.180 C 192.995 266.101,187.223 272.400,183.586 272.400 C 183.180 272.400,182.736 272.580,182.600 272.800 C 182.445 273.050,178.396 273.200,171.776 273.200 L 161.200 273.200 161.200 256.353 L 161.200 239.506 171.700 239.711 C 180.172 239.876,182.509 240.043,183.800 240.572 M335.450 313.250 C 335.309 313.953,335.269 314.602,335.359 314.692 C 335.450 314.783,335.648 314.291,335.800 313.600 C 335.952 312.909,335.993 312.259,335.891 312.158 C 335.789 312.056,335.591 312.547,335.450 313.250 M328.985 328.500 C 328.368 329.435,328.120 329.989,328.432 329.731 C 329.033 329.234,330.564 326.800,330.276 326.800 C 330.183 326.800,329.602 327.565,328.985 328.500 M323.494 334.875 C 321.125 337.289,319.685 338.903,320.294 338.461 C 321.791 337.376,328.578 330.279,327.962 330.443 C 327.873 330.467,325.862 332.461,323.494 334.875 M313.800 342.400 C 313.140 342.837,312.780 343.192,313.000 343.188 C 313.401 343.182,315.576 341.623,315.200 341.612 C 315.090 341.608,314.460 341.963,313.800 342.400 M174.729 347.500 C 182.280 347.561,194.520 347.561,201.929 347.500 C 209.338 347.439,203.160 347.389,188.200 347.389 C 173.240 347.389,167.178 347.439,174.729 347.500 M220.000 347.670 C 220.990 347.819,238.900 347.916,259.800 347.886 C 280.700 347.856,296.000 347.781,293.800 347.719 C 284.728 347.465,218.341 347.421,220.000 347.670 " stroke="none" fill="#db5c64" fill-rule="evenodd"></path><path id="path1" d="M217.000 52.848 C 216.120 53.049,214.500 53.404,213.400 53.636 C 202.027 56.039,190.528 65.066,185.053 75.892 C 181.554 82.809,180.725 86.486,180.508 96.040 L 180.329 103.881 205.265 104.175 C 218.979 104.336,230.243 104.511,230.295 104.562 C 230.620 104.884,230.862 125.491,230.614 131.700 L 230.313 139.200 222.551 139.200 L 214.789 139.200 214.894 152.090 L 215.000 164.981 219.000 165.431 C 232.970 167.002,244.301 174.025,251.709 185.702 C 253.354 188.295,255.600 192.942,255.600 193.751 C 255.600 194.082,255.759 194.451,255.954 194.571 C 256.149 194.692,256.404 195.287,256.521 195.895 C 256.638 196.503,256.946 197.720,257.205 198.600 C 257.463 199.480,257.814 201.010,257.984 202.000 C 258.351 204.140,258.507 57.550,258.141 54.500 L 257.889 52.400 238.244 52.441 C 227.440 52.464,217.880 52.647,217.000 52.848 M287.200 78.893 C 282.561 80.608,278.975 83.806,277.174 87.835 C 276.691 88.916,276.133 90.123,275.934 90.517 C 275.426 91.523,275.467 100.027,275.982 100.542 C 276.212 100.772,276.400 101.261,276.400 101.630 C 276.400 104.271,283.633 112.000,286.105 112.000 C 286.414 112.000,286.795 112.129,286.953 112.286 C 291.776 117.109,309.600 108.732,309.600 101.642 C 309.600 101.267,309.805 100.755,310.056 100.504 C 310.343 100.217,310.512 98.396,310.512 95.600 C 310.512 92.804,310.343 90.983,310.056 90.696 C 309.805 90.445,309.596 89.871,309.591 89.420 C 309.586 88.969,309.230 88.150,308.800 87.600 C 308.370 87.050,308.014 86.399,308.009 86.154 C 308.004 85.908,307.046 84.715,305.880 83.501 C 301.117 78.544,293.336 76.625,287.200 78.893 M91.600 121.736 L 91.600 138.671 103.065 138.936 C 121.932 139.371,125.873 139.308,126.157 138.567 C 126.474 137.741,126.474 106.259,126.157 105.433 C 125.941 104.869,124.033 104.800,108.757 104.800 L 91.600 104.800 91.600 121.736 M289.438 130.426 C 283.847 131.353,276.400 137.957,276.400 141.989 C 276.400 142.409,276.220 142.864,276.000 143.000 C 275.449 143.341,275.491 151.691,276.051 153.081 C 281.372 166.295,295.797 169.794,305.405 160.201 C 307.516 158.093,308.215 157.010,310.117 152.902 C 310.346 152.408,310.533 150.112,310.533 147.800 C 310.533 145.488,310.346 143.192,310.117 142.698 C 308.210 138.579,307.518 137.507,305.406 135.394 C 301.158 131.147,295.573 129.409,289.438 130.426 M290.600 182.431 C 285.231 183.146,279.521 187.006,277.736 191.128 C 277.337 192.047,276.874 192.800,276.706 192.800 C 276.538 192.800,276.400 193.239,276.400 193.776 C 276.400 194.313,276.220 194.864,276.000 195.000 C 275.770 195.142,275.600 197.263,275.600 200.000 C 275.600 202.737,275.770 204.858,276.000 205.000 C 276.220 205.136,276.400 205.687,276.400 206.224 C 276.400 206.761,276.538 207.200,276.706 207.200 C 276.874 207.200,277.337 207.953,277.736 208.872 C 281.112 216.666,293.016 220.046,301.487 215.615 C 303.451 214.588,308.000 210.235,308.000 209.383 C 308.000 209.062,308.180 208.800,308.400 208.800 C 308.620 208.800,308.800 208.440,308.800 208.000 C 308.800 207.560,308.980 207.200,309.200 207.200 C 309.420 207.200,309.600 206.786,309.600 206.280 C 309.600 205.774,309.805 205.155,310.056 204.904 C 310.343 204.617,310.512 202.796,310.512 200.000 C 310.512 197.204,310.343 195.383,310.056 195.096 C 309.805 194.845,309.600 194.226,309.600 193.720 C 309.600 193.214,309.420 192.800,309.200 192.800 C 308.980 192.800,308.800 192.440,308.800 192.000 C 308.800 191.560,308.620 191.200,308.400 191.200 C 308.180 191.200,308.000 190.938,308.000 190.617 C 308.000 189.715,303.402 185.387,301.290 184.302 C 298.022 182.623,294.193 181.953,290.600 182.431 M81.068 200.266 C 80.545 200.788,80.755 312.195,81.280 312.720 C 81.650 313.090,99.918 313.200,161.072 313.200 L 240.385 313.200 240.602 312.300 C 240.721 311.805,240.770 286.380,240.710 255.800 L 240.600 200.200 160.968 200.099 C 117.170 200.043,81.215 200.118,81.068 200.266 M289.149 234.749 C 283.564 235.940,278.623 240.530,276.051 246.919 C 275.491 248.309,275.449 256.659,276.000 257.000 C 276.220 257.136,276.400 257.591,276.400 258.011 C 276.400 264.993,290.295 272.136,298.144 269.189 C 301.350 267.985,303.181 266.830,305.406 264.606 C 307.518 262.493,308.210 261.421,310.117 257.302 C 310.657 256.135,310.657 248.265,310.117 247.098 C 308.215 242.990,307.516 241.907,305.405 239.799 C 301.050 235.452,294.864 233.530,289.149 234.749 M183.099 239.807 C 199.116 244.564,199.889 266.743,184.253 272.914 C 181.837 273.867,160.800 274.517,160.800 273.638 C 160.800 273.332,157.625 273.200,150.224 273.200 C 143.604 273.200,139.555 273.050,139.400 272.800 C 139.264 272.580,138.820 272.400,138.414 272.400 C 135.225 272.400,127.600 264.775,127.600 261.586 C 127.600 261.180,127.420 260.736,127.200 260.600 C 126.977 260.462,126.800 258.596,126.800 256.376 C 126.800 253.992,126.960 252.400,127.200 252.400 C 127.420 252.400,127.600 251.860,127.600 251.200 C 127.600 250.540,127.738 250.000,127.906 250.000 C 128.074 250.000,128.520 249.288,128.897 248.417 C 130.197 245.415,133.829 242.412,138.600 240.393 C 141.086 239.341,179.813 238.831,183.099 239.807 M288.930 286.955 C 288.012 287.203,287.127 287.540,286.964 287.703 C 286.800 287.866,286.414 288.000,286.105 288.000 C 283.633 288.000,276.400 295.729,276.400 298.370 C 276.400 298.739,276.212 299.228,275.982 299.458 C 275.467 299.973,275.426 308.477,275.934 309.483 C 276.133 309.877,276.691 311.084,277.174 312.165 C 282.062 323.100,297.324 325.404,305.880 316.499 C 307.046 315.285,308.004 314.092,308.009 313.846 C 308.014 313.601,308.370 312.950,308.800 312.400 C 309.230 311.850,309.586 311.031,309.591 310.580 C 309.596 310.129,309.805 309.555,310.056 309.304 C 310.343 309.017,310.512 307.196,310.512 304.400 C 310.512 301.604,310.343 299.783,310.056 299.496 C 309.805 299.245,309.600 298.733,309.600 298.358 C 309.600 291.951,296.728 284.850,288.930 286.955 M258.095 311.076 C 258.043 311.998,257.820 312.864,257.600 313.000 C 257.380 313.136,257.200 313.567,257.200 313.958 C 257.200 316.512,253.778 324.396,250.671 329.000 C 245.159 337.168,230.918 346.800,224.354 346.800 C 223.940 346.800,223.600 346.982,223.600 347.204 C 223.600 347.472,229.377 347.573,240.700 347.504 L 257.800 347.400 258.102 344.400 C 258.268 342.750,258.356 334.200,258.297 325.400 C 258.239 316.600,258.148 310.154,258.095 311.076 " stroke="none" fill="#b9dee8" fill-rule="evenodd"></path><path id="path2" d="M329.200 70.633 C 329.200 70.870,329.992 72.453,330.959 74.151 C 331.927 75.849,332.935 77.814,333.200 78.519 C 333.464 79.223,333.824 80.160,334.000 80.600 C 334.969 83.027,335.169 83.812,336.379 89.931 C 336.968 92.913,336.968 307.087,336.379 310.069 C 335.176 316.150,335.060 316.610,334.021 319.400 C 331.093 327.267,320.308 340.800,316.968 340.800 C 316.845 340.800,315.992 341.307,315.072 341.928 C 311.537 344.312,305.752 346.429,300.107 347.403 C 296.961 347.946,291.442 348.009,257.546 347.888 C 236.126 347.812,192.285 347.721,160.122 347.686 C 119.588 347.642,101.054 347.489,99.722 347.187 C 98.665 346.947,96.990 346.564,96.000 346.336 C 92.876 345.617,88.150 343.595,84.367 341.359 C 82.357 340.172,80.598 339.200,80.458 339.200 C 80.317 339.200,90.571 349.595,103.245 362.300 C 115.918 375.005,126.684 385.985,127.171 386.700 C 127.761 387.568,128.378 388.000,129.027 388.000 C 129.562 388.000,130.000 388.180,130.000 388.400 C 130.000 388.620,130.362 388.800,130.805 388.800 C 131.248 388.800,131.923 388.976,132.305 389.191 C 133.508 389.868,139.174 391.600,140.185 391.600 C 140.717 391.600,141.264 391.780,141.400 392.000 C 141.536 392.220,142.177 392.400,142.824 392.400 C 143.471 392.400,144.000 392.580,144.000 392.800 C 144.000 393.020,144.630 393.200,145.400 393.200 C 146.170 393.200,146.800 393.380,146.800 393.600 C 146.800 393.820,147.430 394.000,148.200 394.000 C 148.970 394.000,149.600 394.180,149.600 394.400 C 149.600 394.620,150.320 394.800,151.200 394.800 C 152.080 394.800,152.800 394.980,152.800 395.200 C 152.800 395.420,153.700 395.600,154.800 395.600 C 155.900 395.600,156.800 395.780,156.800 396.000 C 156.800 396.220,157.520 396.400,158.400 396.400 C 159.280 396.400,160.000 396.580,160.000 396.800 C 160.000 397.020,160.990 397.200,162.200 397.200 C 163.410 397.200,164.400 397.380,164.400 397.600 C 164.400 397.822,165.467 398.000,166.800 398.000 C 168.133 398.000,169.200 398.178,169.200 398.400 C 169.200 398.628,170.389 398.800,171.967 398.800 C 173.824 398.800,174.788 398.964,174.900 399.300 C 175.144 400.032,224.856 400.032,225.100 399.300 C 225.212 398.965,226.171 398.800,228.010 398.800 C 229.518 398.800,230.864 398.620,231.000 398.400 C 231.136 398.180,232.227 398.000,233.424 398.000 C 234.621 398.000,235.600 397.820,235.600 397.600 C 235.600 397.380,236.590 397.200,237.800 397.200 C 239.010 397.200,240.000 397.020,240.000 396.800 C 240.000 396.580,240.720 396.400,241.600 396.400 C 242.480 396.400,243.200 396.220,243.200 396.000 C 243.200 395.780,244.100 395.600,245.200 395.600 C 246.300 395.600,247.200 395.420,247.200 395.200 C 247.200 394.980,247.920 394.800,248.800 394.800 C 249.680 394.800,250.400 394.620,250.400 394.400 C 250.400 394.180,251.030 394.000,251.800 394.000 C 252.570 394.000,253.200 393.820,253.200 393.600 C 253.200 393.380,253.830 393.200,254.600 393.200 C 255.370 393.200,256.000 393.020,256.000 392.800 C 256.000 392.580,256.630 392.400,257.400 392.400 C 258.170 392.400,258.800 392.220,258.800 392.000 C 258.800 391.780,259.247 391.600,259.794 391.600 C 260.688 391.600,268.047 389.348,270.300 388.385 C 270.795 388.173,271.695 387.799,272.300 387.553 C 272.905 387.308,273.713 386.948,274.095 386.753 C 274.477 386.559,275.062 386.400,275.395 386.400 C 275.728 386.400,276.000 386.220,276.000 386.000 C 276.000 385.780,276.439 385.600,276.976 385.600 C 277.513 385.600,278.064 385.420,278.200 385.200 C 278.336 384.980,278.797 384.800,279.224 384.800 C 279.651 384.800,280.000 384.620,280.000 384.400 C 280.000 384.180,280.360 384.000,280.800 384.000 C 281.240 384.000,281.600 383.820,281.600 383.600 C 281.600 383.380,281.960 383.200,282.400 383.200 C 282.840 383.200,283.200 383.020,283.200 382.800 C 283.200 382.580,283.650 382.400,284.200 382.400 C 284.750 382.400,285.200 382.220,285.200 382.000 C 285.200 381.780,285.453 381.600,285.762 381.600 C 286.428 381.600,289.741 379.932,289.933 379.500 C 290.007 379.335,290.412 379.200,290.833 379.200 C 291.255 379.200,291.600 379.020,291.600 378.800 C 291.600 378.580,291.960 378.400,292.400 378.400 C 292.840 378.400,293.200 378.220,293.200 378.000 C 293.200 377.780,293.560 377.600,294.000 377.600 C 294.440 377.600,294.800 377.420,294.800 377.200 C 294.800 376.980,295.036 376.800,295.325 376.800 C 295.613 376.800,296.236 376.440,296.708 376.000 C 297.180 375.560,297.748 375.200,297.970 375.200 C 298.642 375.200,301.200 373.874,301.200 373.526 C 301.200 373.347,301.560 373.200,302.000 373.200 C 302.440 373.200,302.800 373.020,302.800 372.800 C 302.800 372.580,302.993 372.400,303.228 372.400 C 303.463 372.400,304.441 371.860,305.400 371.200 C 306.359 370.540,307.297 370.000,307.484 370.000 C 307.671 370.000,308.083 369.640,308.400 369.200 C 308.717 368.760,309.257 368.400,309.600 368.400 C 309.943 368.400,310.483 368.040,310.800 367.600 C 311.117 367.160,311.657 366.800,312.000 366.800 C 312.343 366.800,312.883 366.440,313.200 366.000 C 313.517 365.560,314.057 365.200,314.400 365.200 C 314.743 365.200,315.283 364.840,315.600 364.400 C 315.917 363.960,316.407 363.600,316.688 363.600 C 316.970 363.600,317.200 363.420,317.200 363.200 C 317.200 362.980,317.430 362.800,317.712 362.800 C 317.993 362.800,318.483 362.440,318.800 362.000 C 319.117 361.560,319.625 361.200,319.928 361.200 C 320.231 361.200,320.983 360.660,321.600 360.000 C 322.217 359.340,322.836 358.800,322.977 358.800 C 323.256 358.800,323.633 358.505,325.596 356.751 C 326.305 356.118,327.042 355.600,327.234 355.600 C 327.426 355.600,328.573 354.610,329.783 353.400 C 330.993 352.190,332.157 351.200,332.371 351.200 C 332.584 351.200,334.703 349.230,337.079 346.821 C 342.316 341.514,341.514 342.316,346.821 337.079 C 349.230 334.703,351.200 332.584,351.200 332.371 C 351.200 332.157,352.190 330.993,353.400 329.783 C 354.610 328.573,355.600 327.426,355.600 327.234 C 355.600 327.042,356.095 326.329,356.700 325.651 C 358.486 323.648,358.800 323.248,358.800 322.977 C 358.800 322.836,359.340 322.217,360.000 321.600 C 360.660 320.983,361.200 320.231,361.200 319.928 C 361.200 319.625,361.560 319.117,362.000 318.800 C 362.440 318.483,362.800 317.993,362.800 317.712 C 362.800 317.430,362.980 317.200,363.200 317.200 C 363.420 317.200,363.600 316.970,363.600 316.688 C 363.600 316.407,363.960 315.917,364.400 315.600 C 364.840 315.283,365.200 314.743,365.200 314.400 C 365.200 314.057,365.560 313.517,366.000 313.200 C 366.440 312.883,366.800 312.343,366.800 312.000 C 366.800 311.657,367.160 311.117,367.600 310.800 C 368.040 310.483,368.400 309.943,368.400 309.600 C 368.400 309.257,368.760 308.717,369.200 308.400 C 369.640 308.083,370.000 307.671,370.000 307.484 C 370.000 307.297,370.540 306.359,371.200 305.400 C 371.860 304.441,372.400 303.463,372.400 303.228 C 372.400 302.993,372.580 302.800,372.800 302.800 C 373.020 302.800,373.200 302.440,373.200 302.000 C 373.200 301.560,373.347 301.200,373.526 301.200 C 373.874 301.200,375.200 298.642,375.200 297.970 C 375.200 297.748,375.560 297.180,376.000 296.708 C 376.440 296.236,376.800 295.613,376.800 295.325 C 376.800 295.036,376.980 294.800,377.200 294.800 C 377.420 294.800,377.600 294.440,377.600 294.000 C 377.600 293.560,377.780 293.200,378.000 293.200 C 378.220 293.200,378.400 292.840,378.400 292.400 C 378.400 291.960,378.580 291.600,378.800 291.600 C 379.020 291.600,379.200 291.255,379.200 290.833 C 379.200 290.412,379.335 290.007,379.500 289.933 C 379.932 289.741,381.600 286.428,381.600 285.762 C 381.600 285.453,381.780 285.200,382.000 285.200 C 382.220 285.200,382.400 284.750,382.400 284.200 C 382.400 283.650,382.580 283.200,382.800 283.200 C 383.020 283.200,383.200 282.840,383.200 282.400 C 383.200 281.960,383.380 281.600,383.600 281.600 C 383.820 281.600,384.000 281.240,384.000 280.800 C 384.000 280.360,384.180 280.000,384.400 280.000 C 384.620 280.000,384.800 279.651,384.800 279.224 C 384.800 278.797,384.980 278.336,385.200 278.200 C 385.420 278.064,385.600 277.513,385.600 276.976 C 385.600 276.439,385.780 276.000,386.000 276.000 C 386.220 276.000,386.400 275.728,386.400 275.395 C 386.400 275.062,386.559 274.477,386.753 274.095 C 386.948 273.713,387.308 272.905,387.553 272.300 C 387.799 271.695,388.173 270.795,388.385 270.300 C 389.348 268.047,391.600 260.688,391.600 259.794 C 391.600 259.247,391.780 258.800,392.000 258.800 C 392.220 258.800,392.400 258.170,392.400 257.400 C 392.400 256.630,392.580 256.000,392.800 256.000 C 393.020 256.000,393.200 255.370,393.200 254.600 C 393.200 253.830,393.380 253.200,393.600 253.200 C 393.820 253.200,394.000 252.570,394.000 251.800 C 394.000 251.030,394.180 250.400,394.400 250.400 C 394.620 250.400,394.800 249.680,394.800 248.800 C 394.800 247.920,394.980 247.200,395.200 247.200 C 395.420 247.200,395.600 246.300,395.600 245.200 C 395.600 244.100,395.780 243.200,396.000 243.200 C 396.220 243.200,396.400 242.480,396.400 241.600 C 396.400 240.720,396.580 240.000,396.800 240.000 C 397.020 240.000,397.200 239.010,397.200 237.800 C 397.200 236.590,397.380 235.600,397.600 235.600 C 397.820 235.600,398.000 234.621,398.000 233.424 C 398.000 232.227,398.180 231.136,398.400 231.000 C 398.620 230.864,398.800 229.518,398.800 228.010 C 398.800 226.171,398.965 225.212,399.300 225.100 C 399.693 224.969,399.800 219.591,399.800 200.000 C 399.800 180.409,399.693 175.031,399.300 174.900 C 398.964 174.788,398.800 173.824,398.800 171.967 C 398.800 170.389,398.628 169.200,398.400 169.200 C 398.178 169.200,398.000 168.133,398.000 166.800 C 398.000 165.467,397.822 164.400,397.600 164.400 C 397.380 164.400,397.200 163.410,397.200 162.200 C 397.200 160.990,397.020 160.000,396.800 160.000 C 396.580 160.000,396.400 159.280,396.400 158.400 C 396.400 157.520,396.220 156.800,396.000 156.800 C 395.780 156.800,395.600 155.900,395.600 154.800 C 395.600 153.700,395.420 152.800,395.200 152.800 C 394.980 152.800,394.800 152.080,394.800 151.200 C 394.800 150.320,394.620 149.600,394.400 149.600 C 394.180 149.600,394.000 148.970,394.000 148.200 C 394.000 147.430,393.820 146.800,393.600 146.800 C 393.380 146.800,393.200 146.170,393.200 145.400 C 393.200 144.630,393.020 144.000,392.800 144.000 C 392.580 144.000,392.400 143.471,392.400 142.824 C 392.400 142.177,392.220 141.536,392.000 141.400 C 391.780 141.264,391.600 140.717,391.600 140.185 C 391.600 139.174,389.868 133.508,389.191 132.305 C 388.976 131.923,388.800 131.248,388.800 130.805 C 388.800 130.362,388.620 130.000,388.400 130.000 C 388.180 130.000,388.000 129.562,388.000 129.027 C 388.000 128.378,387.568 127.761,386.700 127.171 C 385.985 126.685,372.755 113.668,357.300 98.244 C 341.845 82.821,329.200 70.396,329.200 70.633 M161.200 256.353 L 161.200 273.200 171.776 273.200 C 178.396 273.200,182.445 273.050,182.600 272.800 C 182.736 272.580,183.180 272.400,183.586 272.400 C 187.223 272.400,192.995 266.101,194.786 260.180 C 195.820 256.758,194.361 249.252,192.215 246.956 C 191.987 246.711,191.333 245.991,190.762 245.356 C 189.357 243.790,187.680 242.400,187.197 242.400 C 186.979 242.400,186.800 242.241,186.800 242.047 C 186.800 241.852,186.485 241.589,186.100 241.461 C 185.715 241.333,184.680 240.933,183.800 240.572 C 182.509 240.043,180.172 239.876,171.700 239.711 L 161.200 239.506 161.200 256.353 " stroke="none" fill="#cd2e19" fill-rule="evenodd"></path><path id="path3" d="M240.445 52.289 L 257.891 52.408 258.146 54.583 C 258.505 57.631,258.413 341.593,258.053 344.900 L 257.758 347.600 277.779 347.600 C 293.617 347.600,298.434 347.479,300.834 347.019 C 318.076 343.720,331.246 330.984,335.495 313.500 C 336.588 309.002,336.588 90.998,335.495 86.500 C 331.195 68.804,319.489 57.359,301.000 52.771 C 299.487 52.396,289.755 52.262,261.000 52.223 C 240.100 52.194,230.850 52.224,240.445 52.289 M215.800 52.800 C 214.722 53.074,214.702 53.106,215.600 53.113 C 216.150 53.117,217.050 52.976,217.600 52.800 C 218.944 52.369,217.492 52.369,215.800 52.800 M212.200 53.600 C 211.696 53.817,211.622 53.944,212.000 53.944 C 212.330 53.944,212.960 53.789,213.400 53.600 C 213.904 53.383,213.978 53.256,213.600 53.256 C 213.270 53.256,212.640 53.411,212.200 53.600 M195.315 62.700 C 193.337 64.601,193.275 64.694,194.961 63.237 C 197.824 60.760,198.203 60.400,197.940 60.400 C 197.813 60.400,196.632 61.435,195.315 62.700 M190.806 66.994 C 190.063 67.761,189.532 68.450,189.627 68.525 C 189.722 68.600,190.406 67.973,191.146 67.131 C 192.829 65.218,192.612 65.131,190.806 66.994 M297.929 78.614 C 302.157 80.086,307.975 84.438,308.009 86.154 C 308.014 86.399,308.370 87.050,308.800 87.600 C 309.230 88.150,309.586 88.969,309.591 89.420 C 309.596 89.871,309.805 90.445,310.056 90.696 C 310.343 90.983,310.512 92.804,310.512 95.600 C 310.512 98.396,310.343 100.217,310.056 100.504 C 309.805 100.755,309.600 101.267,309.600 101.642 C 309.600 105.533,302.150 111.877,296.080 113.154 C 292.834 113.837,288.049 113.382,286.953 112.286 C 286.795 112.129,286.414 112.000,286.105 112.000 C 283.633 112.000,276.400 104.271,276.400 101.630 C 276.400 101.261,276.212 100.772,275.982 100.542 C 275.467 100.027,275.426 91.523,275.934 90.517 C 276.133 90.123,276.691 88.916,277.174 87.835 C 280.476 80.449,290.461 76.013,297.929 78.614 M181.429 84.229 C 181.281 84.815,181.238 85.372,181.332 85.466 C 181.427 85.560,181.624 85.158,181.771 84.571 C 181.919 83.985,181.962 83.428,181.868 83.334 C 181.773 83.240,181.576 83.642,181.429 84.229 M180.656 87.284 C 180.521 87.788,180.427 88.560,180.446 89.000 C 180.465 89.440,180.645 89.098,180.846 88.240 C 181.236 86.578,181.070 85.740,180.656 87.284 M180.089 97.476 C 180.030 101.491,179.846 103.648,179.546 103.834 C 179.296 103.988,159.361 104.224,135.246 104.357 L 91.400 104.600 91.400 121.800 L 91.400 139.000 99.100 139.013 L 106.801 139.027 99.200 138.905 L 91.600 138.783 91.600 121.791 L 91.600 104.800 108.792 104.800 L 125.985 104.800 126.208 105.700 C 126.331 106.195,126.379 113.935,126.316 122.900 L 126.200 139.200 178.257 139.200 L 230.313 139.200 230.614 131.700 C 230.862 125.491,230.620 104.884,230.295 104.562 C 230.243 104.511,218.999 104.336,205.310 104.175 L 180.420 103.882 180.299 97.641 L 180.178 91.400 180.089 97.476 M298.200 130.874 C 301.111 131.865,303.164 133.153,305.406 135.394 C 307.518 137.507,308.210 138.579,310.117 142.698 C 310.346 143.192,310.533 145.488,310.533 147.800 C 310.533 150.112,310.346 152.408,310.117 152.902 C 308.215 157.010,307.516 158.093,305.405 160.201 C 301.372 164.227,298.526 165.376,292.600 165.371 C 284.962 165.363,279.305 161.163,276.051 153.081 C 275.491 151.691,275.449 143.341,276.000 143.000 C 276.220 142.864,276.400 142.409,276.400 141.989 C 276.400 140.550,278.905 136.679,281.317 134.392 C 285.139 130.767,293.047 129.119,298.200 130.874 M297.600 182.888 C 301.323 183.804,308.000 188.767,308.000 190.617 C 308.000 190.938,308.180 191.200,308.400 191.200 C 308.620 191.200,308.800 191.560,308.800 192.000 C 308.800 192.440,308.980 192.800,309.200 192.800 C 309.420 192.800,309.600 193.214,309.600 193.720 C 309.600 194.226,309.805 194.845,310.056 195.096 C 310.343 195.383,310.512 197.204,310.512 200.000 C 310.512 202.796,310.343 204.617,310.056 204.904 C 309.805 205.155,309.600 205.774,309.600 206.280 C 309.600 206.786,309.420 207.200,309.200 207.200 C 308.980 207.200,308.800 207.560,308.800 208.000 C 308.800 208.440,308.620 208.800,308.400 208.800 C 308.180 208.800,308.000 209.062,308.000 209.383 C 308.000 210.235,303.451 214.588,301.487 215.615 C 293.016 220.046,281.112 216.666,277.736 208.872 C 277.337 207.953,276.874 207.200,276.706 207.200 C 276.538 207.200,276.400 206.761,276.400 206.224 C 276.400 205.687,276.220 205.136,276.000 205.000 C 275.770 204.858,275.600 202.737,275.600 200.000 C 275.600 197.263,275.770 195.142,276.000 195.000 C 276.220 194.864,276.400 194.313,276.400 193.776 C 276.400 193.239,276.538 192.800,276.706 192.800 C 276.874 192.800,277.337 192.047,277.736 191.128 C 280.521 184.699,289.622 180.924,297.600 182.888 M298.784 235.419 C 301.613 236.426,302.837 237.236,305.405 239.799 C 307.516 241.907,308.215 242.990,310.117 247.098 C 310.657 248.265,310.657 256.135,310.117 257.302 C 308.210 261.421,307.518 262.493,305.406 264.606 C 303.181 266.830,301.350 267.985,298.144 269.189 C 290.295 272.136,276.400 264.993,276.400 258.011 C 276.400 257.591,276.220 257.136,276.000 257.000 C 275.449 256.659,275.491 248.309,276.051 246.919 C 280.069 236.939,289.564 232.136,298.784 235.419 M296.080 286.846 C 302.150 288.123,309.600 294.467,309.600 298.358 C 309.600 298.733,309.805 299.245,310.056 299.496 C 310.343 299.783,310.512 301.604,310.512 304.400 C 310.512 307.196,310.343 309.017,310.056 309.304 C 309.805 309.555,309.596 310.129,309.591 310.580 C 309.586 311.031,309.230 311.850,308.800 312.400 C 308.370 312.950,308.014 313.601,308.009 313.846 C 308.004 314.092,307.046 315.285,305.880 316.499 C 297.324 325.404,282.062 323.100,277.174 312.165 C 276.691 311.084,276.133 309.877,275.934 309.483 C 275.426 308.477,275.467 299.973,275.982 299.458 C 276.212 299.228,276.400 298.739,276.400 298.370 C 276.400 295.729,283.633 288.000,286.105 288.000 C 286.414 288.000,286.800 287.866,286.964 287.703 C 288.043 286.624,292.868 286.170,296.080 286.846 " stroke="none" fill="#84a6b9" fill-rule="evenodd"></path><path id="path4" d="M106.800 152.099 L 106.800 165.095 105.300 165.343 C 104.475 165.480,103.170 165.593,102.400 165.596 C 100.486 165.602,94.315 166.983,91.876 167.952 C 77.997 173.464,68.442 184.318,64.544 199.000 C 63.563 202.692,63.371 309.244,64.338 313.200 C 66.465 321.908,71.809 331.385,77.000 335.658 C 77.440 336.020,78.250 336.715,78.800 337.204 C 84.201 341.996,92.406 345.711,100.914 347.213 C 106.197 348.146,221.813 347.343,225.800 346.346 C 240.612 342.640,252.214 331.104,256.922 315.400 C 257.894 312.157,258.532 210.026,257.629 202.185 C 255.401 182.841,238.909 167.568,217.800 165.301 L 215.000 165.000 214.800 152.200 L 214.600 139.400 160.700 139.251 L 106.800 139.103 106.800 152.099 M240.710 255.800 C 240.770 286.380,240.721 311.805,240.602 312.300 L 240.385 313.200 161.072 313.200 C 99.918 313.200,81.650 313.090,81.280 312.720 C 80.755 312.195,80.545 200.788,81.068 200.266 C 81.215 200.118,117.170 200.043,160.968 200.099 L 240.600 200.200 240.710 255.800 " stroke="none" fill="#f2ba3e" fill-rule="evenodd"></path></g></svg>