<?xml version="1.0" standalone="no"?>
<!DOCTYPE svg PUBLIC "-//W3C//DTD SVG 20010904//EN"
 "http://www.w3.org/TR/2001/REC-SVG-20010904/DTD/svg10.dtd">
<svg version="1.0" xmlns="http://www.w3.org/2000/svg"
 width="512.000000pt" height="512.000000pt" viewBox="0 0 512.000000 512.000000"
 preserveAspectRatio="xMidYMid meet">

<g transform="translate(0.000000,512.000000) scale(0.100000,-0.100000)"
fill="#000000" stroke="none">
<path d="M1465 4793 c-611 -25 -1156 -431 -1371 -1023 -156 -431 -113 -933
122 -1415 98 -201 254 -433 425 -630 108 -126 110 -127 160 -129 71 -1 120 75
88 137 -7 12 -49 65 -93 117 -490 570 -689 1184 -555 1713 112 444 423 798
834 950 147 54 280 77 450 77 223 1 424 -50 622 -156 56 -29 114 -54 129 -54
38 0 94 59 94 99 0 50 -47 92 -172 154 -229 115 -482 170 -733 160z"/>
<path d="M3483 4788 c-378 -24 -781 -220 -937 -457 -69 -105 -81 -147 -81
-286 0 -111 2 -125 29 -185 17 -36 62 -111 100 -167 101 -146 134 -200 156
-261 26 -68 43 -192 35 -242 l-6 -38 -47 15 c-64 20 -164 12 -222 -17 -25 -12
-64 -43 -88 -68 l-42 -45 -23 21 c-33 32 -129 72 -186 79 l-51 6 0 151 c0 236
-36 334 -169 467 -270 270 -742 263 -1016 -15 -82 -84 -135 -171 -172 -281
-24 -71 -27 -95 -27 -215 0 -119 3 -144 27 -215 30 -90 73 -167 141 -251 76
-93 79 -101 87 -274 8 -168 23 -255 69 -391 152 -454 555 -792 1053 -884 111
-20 324 -20 439 0 425 74 704 307 788 658 11 45 20 103 20 128 l0 46 75 6
c168 13 283 139 279 307 -2 65 -81 325 -126 414 -84 166 -288 278 -475 262
-40 -4 -86 -12 -103 -18 -17 -5 -33 -8 -36 -5 -3 3 0 49 6 102 10 76 10 116 0
188 -23 168 -60 250 -215 474 -93 134 -109 177 -103 273 5 88 37 150 119 230
194 192 572 312 909 288 737 -50 1293 -725 1222 -1483 -7 -69 -19 -160 -28
-203 -44 -214 -172 -511 -311 -722 -382 -578 -1062 -1144 -1910 -1591 l-103
-54 -102 54 c-328 173 -616 354 -911 573 -106 79 -123 88 -162 88 -36 0 -48
-5 -69 -31 -27 -32 -34 -76 -16 -110 24 -44 457 -349 705 -496 154 -91 423
-239 481 -264 84 -35 103 -30 351 106 1153 632 1925 1405 2181 2181 112 340
130 652 56 964 -69 292 -191 514 -403 734 -126 129 -248 220 -407 299 -253
126 -492 173 -781 155z m-1921 -1039 c139 -29 274 -124 325 -227 27 -55 28
-63 34 -277 6 -176 4 -224 -7 -241 -7 -12 -40 -45 -73 -74 -68 -59 -101 -117
-101 -178 0 -52 14 -90 48 -125 55 -59 69 -62 300 -65 231 -4 255 0 295 48 13
15 58 95 100 178 43 84 89 160 104 171 39 31 88 27 125 -9 46 -47 37 -84 -67
-283 -72 -136 -98 -177 -139 -214 -96 -86 -101 -87 -433 -91 l-291 -3 -26 -25
c-57 -58 -26 -151 55 -168 18 -3 144 -6 281 -6 276 0 322 7 431 62 33 16 84
52 113 80 l53 50 35 -110 c52 -167 63 -181 134 -182 34 0 48 6 67 26 39 43 38
61 -26 267 -30 98 -49 178 -49 208 0 109 72 219 175 268 73 35 181 34 251 -2
62 -31 108 -75 135 -130 22 -43 81 -222 98 -297 17 -76 -24 -130 -98 -130 -53
0 -76 31 -115 153 -40 129 -63 159 -120 159 -47 0 -82 -23 -95 -65 -10 -29 -6
-50 30 -167 92 -302 53 -515 -128 -698 -64 -66 -94 -87 -173 -125 -142 -69
-257 -97 -421 -104 -161 -7 -263 6 -399 49 -295 93 -548 306 -684 575 -74 149
-116 317 -116 473 0 100 -14 195 -37 252 -9 22 -45 77 -80 122 -75 94 -107
153 -128 233 -67 258 104 547 364 615 77 20 178 23 253 7z m663 -844 c53 -40
60 -60 39 -106 l-17 -39 -145 0 -145 0 65 68 c36 37 70 78 77 91 11 20 18 23
52 18 22 -3 55 -17 74 -32z"/>
<path d="M3548 4304 c-34 -18 -48 -43 -48 -84 0 -42 15 -67 52 -86 64 -33 138
11 138 83 0 45 -14 69 -50 88 -36 19 -57 18 -92 -1z"/>
<path d="M3890 4242 c-49 -24 -68 -77 -46 -123 13 -28 35 -44 119 -86 281
-144 458 -406 489 -728 10 -104 14 -117 39 -141 53 -50 139 -27 158 43 13 47
-1 198 -30 308 -76 297 -293 564 -562 694 -104 50 -125 54 -167 33z"/>
<path d="M1062 1485 c-30 -13 -62 -59 -62 -90 0 -26 29 -74 51 -86 42 -22 91
-14 121 20 70 79 -13 196 -110 156z"/>
</g>
</svg>
